<svg 
    xmlns="http://www.w3.org/2000/svg" 
    fill="none" viewBox="0 0 2504 2504"
>
    <g clip-path="url(#a)">
        <path class="stroke-path" stroke-width="30" d="m15.841 738.128 696.773-722.21a3 3 0 0 1 2.162-.917L1825.66 16c.85 0 1.66.362 2.23.994l654.35 727.659c.49.546.76 1.254.77 1.988l5.48 924.87c.01.64-.2 1.27-.58 1.79l-599.01 813.98c-.57.77-1.46 1.22-2.42 1.22l-1211.641-1c-.852 0-1.664-.36-2.232-1L15.766 1753.35a3 3 0 0 1-.766-2V740.211c0-.777.302-1.523.841-2.083Z"/>
        <path class="stroke-path" stroke-width="30" d="M73.558 765.714 731.686 86.608a2 2 0 0 1 1.436-.608H1785.88a2 2 0 0 1 1.48.66l616.95 684.191c.33.363.51.835.51 1.325l6.18 876.164c0 .44-.14.86-.4 1.21l-567.86 766.64c-.38.51-.98.81-1.61.81l-1142.726-1c-.562 0-1.099-.24-1.477-.65l-630.4-692.37a2 2 0 0 1-.521-1.36l6.988-954.529a2 2 0 0 1 .564-1.377Z"/>
        <path class="stroke-path" stroke-width="25" d="m330.555 854.802 522.202-542.19a2 2 0 0 1 1.438-.613l831.035-.998c.57-.001 1.12.242 1.5.666l491.64 549.011c.33.367.51.842.51 1.334l.12 694.038c0 .42-.13.83-.38 1.18l-443.69 611.94c-.38.52-.98.83-1.62.83H823.018c-.568 0-1.109-.24-1.489-.66l-495.014-552.13a2.03 2.03 0 0 1-.511-1.36l3.992-759.661a2.02 2.02 0 0 1 .559-1.387Z"/>
        <path class="stroke-path" stroke-width="25" d="m411.552 865.509 479.201-497.896a2 2 0 0 1 1.441-.613h763.336c.57 0 1.11.244 1.49.67l450.63 506.389c.33.366.51.838.51 1.327l.84 646.574c0 .42-.13.83-.38 1.17l-410.55 566.04c-.37.52-.98.83-1.62.83l-832.477-1c-.57 0-1.113-.24-1.492-.67L405.513 1575.1c-.33-.37-.511-.85-.506-1.34l5.986-706.881a2 2 0 0 1 .559-1.37Z"/>
        <path class="stroke-path" stroke-width="30" d="M400 1202.5h189.5v194H732V1596h135l1 213.5h161V2040l214.25-5M2107 1196.5h-199.5l-1 200H1765V1591h-148v205.5h-168.5l5 233.5-210.25 5m0 0v-980.5m0-198v198m0 0H771m472.25 0H1756"/>
        <path class="stroke-path" stroke-width="30" d="m411.5 1275 108-1v194.5H661v192l143 1v218l161 1v198M2096.5 1274l-108-1v187.5H1848v199l-138-3v216h-167v205"/>
        <path class="stroke-path" stroke-width="13" d="M188.5 1412.5v58m0 84v-84m0 0H111m77.5 0H264M141 1421l28 32.5m46 0 37.5-32.5m-85.5 76.5-32.5 35m76-39 41 42.5M366.5 576v58m0 84v-84m0 0H289m77.5 0H442m-123-49.5 28 32.5m46 0 37.5-32.5M345 661l-32.5 35m76-39 41 42.5M1746.5 158v58m0 84v-84m0 0H1669m77.5 0h75.5m-123-49.5 28 32.5m46 0 37.5-32.5M1725 243l-32.5 35m76-39 41 42.5M1940.5 875v58m0 84v-84m0 0H1863m77.5 0h75.5m-123-49.5 28 32.5m46 0 37.5-32.5M1919 960l-32.5 35m76-39 41 42.5M540.5 854v58m0 84v-84m0 0H463m77.5 0H616m-123-49.5 28 32.5m46 0 37.5-32.5M519 939l-32.5 35m76-39 41 42.5M1861.5 2131v58m0 84v-84m0 0H1784m77.5 0h75.5m-123-49.5 28 32.5m46 0 37.5-32.5M1840 2216l-32.5 35m76-39 41 42.5M690.5 2156v58m0 84v-84m0 0H613m77.5 0H766m-123-49.5 28 32.5m46 0 37.5-32.5M669 2241l-32.5 35m76-39 41 42.5"/>
        <path class="fill-path" fill-rule="evenodd" d="M1615 810.174c18.97-8.724 32.56-10.057 52.97-5.928 19.21 3.885 30.62 9.55 44.41 23.71 21.33 21.903 22.32 44.724 22.6 75.575.24 27.759-1.04 46.513-17.14 68.907-16.59 23.062-33.67 34.552-61.55 37.792-27.63 3.2-47-3.41-67.78-22.233-20.97-18.991-26.71-38.256-29.61-66.683-2.66-26.085.3-42.832 12.47-65.943 11.48-21.814 21.48-35.011 43.63-45.197m42.6 29.233c-12.89-2.699-21.58-1.595-33.5 4.004-14.57 6.85-20.33 16.22-27.59 30.535-8 15.774-9.62 26.97-7.88 44.55 1.87 18.946 4.61 32.188 18.72 45.051 13.08 11.926 25.23 17.056 42.86 15.017 18.09-2.093 28.44-10.724 38.92-25.529 10.81-15.256 11.01-27.892 10.84-46.552-.18-20.697.06-36.065-14.29-51.058-8.71-9.109-15.71-13.428-28.08-16.018" clip-rule="evenodd"/>
        <path class="fill-path" d="M800.5 804c-4.878-2.469-11.767-2.319-18 0-21.5 8-20.741 7.421-35 18-15.5 11.5-21.122 20.857-29.5 37.5-7.333 14.567-10.243 23.786-12 40-2.27 20.949-3.08 34.996 7 53.5 8.124 14.914 16.53 21.609 31 30.5 13.418 8.244 21.192 11.063 37 14.5 11.5 2.5 20.492 2.76 32-1 7.482-2.445 12.95-4.418 18.5-10l.226-.227c4.575-4.6 7.675-7.716 7.774-14.273.103-6.831-2.32-13.569-9-15-7-1.5-10.5 0-17.5 2.5-8.674 3.098-12.842 7.52-22 8.5-11.773 1.26-19.114-1.314-29.5-7-9.575-5.242-12-8.5-18.5-16s-6.34-21.057-6-33c.369-12.976 1.211-20.381 7-32 4.808-9.65 8.238-15.017 16-22.5 8.777-8.461 14.536-11.17 25.5-16.5 7.566-3.678 16.305-1.02 21-8 3.53-5.248 3.795-9.81 2.5-16-1.276-6.098-2.941-10.687-8.5-13.5"/>
        <path class="fill-path" fill-rule="evenodd" d="M919.801 822.541c3.582-1.558 10.524-2.883 16.841-1.021 5.214 1.538 9.699 4.978 13.226 8.701 3.53 3.724 6.132 7.762 7.576 10.548 7.018 13.534 9.25 21.091 14.524 35.054 2.931 7.761 6.06 17.901 8.455 26.093a738 738 0 0 1 3.763 13.348l.221.822.008.031.137.05a40.718 40.718 0 0 1 4.355 1.939c2.526 1.313 5.508 3.239 7.016 5.626 2.837 4.493 2.763 8.206 2.073 13.334-.273 2.031-1.172 4.458-1.984 6.35a52 52 0 0 1-1.438 3.064l-.027.051.146.389a188.261 188.261 0 0 1 2.537 7.281c1.461 4.498 3.1 10.158 3.77 14.727.7 4.807 1.33 8.348 1.47 12.05.13 3.72-.22 7.6-1.48 13.132-1.345 5.91-7.234 8.11-13.008 7.89-5.545-.21-10.171-3.621-11.942-7.806-2.748-6.496-3.524-8.801-3.909-11.434-.19-1.296-.286-2.685-.487-4.671-.203-1.999-.514-4.646-1.137-8.51-.157-.971-.911-4.233-1.815-7.779-.903-3.545-1.943-7.322-2.663-9.321-.683-1.897-1.785-3.813-2.725-5.264a39 39 0 0 0-1.202-1.748c-.142-.195-.26-.35-.344-.461l-.568.014a734.037 734.037 0 0 1-9.972.169c-6.139.064-13.775.063-19.738-.19-6.577-.28-14.964-1.031-21.701-1.711a782 782 0 0 1-10.935-1.186l-.45-.053-.037.175-.364 1.712c-.31 1.456-.746 3.492-1.244 5.807a1627 1627 0 0 1-3.261 14.867c-2.592 11.467-2.847 18.44-7.019 29.566-1.48 3.945-2.572 7.684-4.255 10.624-1.712 2.99-4.067 5.22-8.097 6.19-2.682.64-5.072.73-7.349.22-2.276-.51-4.405-1.62-6.576-3.32-1.941-1.51-3.014-3.82-3.555-6.35-.542-2.533-.563-5.347-.358-7.955.206-2.612.641-5.042 1.024-6.817.191-.887.371-1.612.502-2.117q.099-.38.156-.584l.044-.154.012-.04.003-.011.001-.003.002-.01.003-.009.012-.037.046-.151.177-.577.654-2.15c.555-1.829 1.328-4.385 2.196-7.297 1.739-5.826 3.862-13.071 5.407-18.759 1.814-6.682 2.958-11.968 4.14-17.258s2.402-10.58 4.363-17.253c3.599-12.248 5.255-18.952 9.507-31.024 5.591-15.869 7.902-25.737 16.034-40.574 1.541-2.813 2.84-5.553 4.093-8.167 1.251-2.609 2.457-5.096 3.801-7.375 2.695-4.571 5.966-8.338 11.345-10.677m12.394 33.73c-.646-1.624-2.909-1.696-3.647-.111-2.951 6.336-8.523 18.494-11.548 26.34-3.66 9.494-8.275 23.559-10.15 29.355a1.993 1.993 0 0 0 1.925 2.607c4.69-.057 14.296-.139 20.725.038 7.232.199 17.913 1.425 23.236 2.083 1.49.184 2.656-1.263 2.141-2.673-2.202-6.03-7.194-19.55-10.877-28.41-3.658-8.8-9.079-22.375-11.805-29.229" clip-rule="evenodd"/>
        <path class="fill-path" d="M1340 823.5c.41-5.399 3-8.5 6-10.5s10.44-4.888 16.5-2.5c4.12 1.622 8.07 5.5 8.5 7.5 4 18.5.5 19 3 33.5 2.93 17.022 2.68 25 4.5 44 2.38 24.778 5.5 52.5 5.5 63.5 0 18-.77 27-4.5 34-2.63 4.928-3.48 9.05-8.5 11.5-5.09 2.48-9.48 2.13-14.5-.5-3.79-1.99-7.36-3.72-7.5-8-.5-15 2.5-27.5 2-36.5-1.02-18.43-1.42-28.61-3-47-1.51-17.548-4-45-4-45l-3.5-36s-.68-5.655-.5-8M1031 1000c-5.56-1.5-7.5-6.5-9-11.5-2.31-7.704-2.19-13.458-2-21.5.5-21 1.84-30.678 2-51-.78-25.384.78-39.615 0-65s5-52.5 5-52.5 11.13-4.056 20 3c22 17.5 10.5 8.5 23.5 16.5 15.05 9.265 5.48 4.143 17 10 0 0-1-7 1.5-22.5.79-4.907 5.54-14.238 10.5-14.499 5.25-.277 9.35 3.786 10 9C1112.5 824 1114 828 1114 828s12.02-5.511 23.5-13c8.62-5.624 19-18 29-21.5 2.86-1 10 7.5 11.5 18.5 1.83 13.4-1 18.221-1 34.5 0 20 1.62 31.297 2 51.5.31 16.808-.68 26.193-1 43-.22 11.714 1.58 18.392 0 30-1.5 11 3.5 22.5-6 26.5-3.72 1.565-8.76 3.3-14 .5-3.96-2.118-3.83-3.054-4.5-7.5-1.5-10 .31-14.996.5-19 1-21.5-.96-28.264-1.5-49-.35-13.468-.82-21.028-1-34.5-.25-18.752-.5-48-.5-48s-7.86 4.256-12.5 6.5c-5.84 2.825-10.22 2.219-15.5 6-6.35 4.551-11 8.19-11 16 0 16 .17 14.228 1 23.5.92 10.309 1 16.152 1 26.5 0 16.793 1.58 26.218 1 43-.5 14.5 0 17.5-4 30-1.23 3.848-9.86 5.483-15.5 3-7.35-3.231-6.5-16.5-6.5-16.5v-18.5c0-7.224-1-22.55-1-37 0-21.088 1-49 1-54 0-4.999-13.5-12.537-18.5-16-8.55-5.918-23.5-12.5-23.5-12.5v131c0 11-.5 15.001-2.5 20.5s-8.35 9.89-13.5 8.5M1422.57 1002.72c-7.3-1.64-6.85-9.085-8.82-14.532-3.04-8.394-2.88-14.663-2.63-23.424.66-22.88-.58-33.423-.37-55.564-1.03-27.655 1.02-43.161 0-70.816-1.03-27.656 2.57-57.198 2.57-57.198s16.76-7.25 23.18 1.314c10.5 14 8.5 16 20.5 24 9.59 6.394 7 4 18 9.374 14.5 8.626 18.5 13.626 26.76 18.451 0 0-.31-18.626 2.97-35.513 1.04-5.346 7.27-15.513 13.79-15.797 6.89-.301 13.78 4.072 14.13 9.805.91 14.68.91 20.505.91 20.505l1.38 44.125c0 17.431-.38 11.05.31 25.603.53 11.282-.69 17.596-.69 28.871 0 18.295.08 28.564-.68 46.848-.66 15.797-.26 40.685-.26 40.685s-10.94 4.973-18.35 2.273c-9.65-3.526-13.54-5.11-13.54-12.981 0-7.872-12.98 2.92-11-30.156 1.27-21.093 4.77-15.593 8.69-37.311 4.08-22.61 4.31-31.385 4.31-36.832s-21.72-26.66-28.29-30.432c-11.22-6.448-34.86-19.619-34.86-19.619s3 22.877 3 42.661c0 21.699 2 55.564 2 55.564v36.498c0 11.984-2.66 18.343-5.28 24.335-2.63 5.991-10.97 10.773-17.73 9.263M534.5 346.5c-1.738 10.321 10 13.5 21.5 16 19.489 4.237 30.21 8.048 48.5 16 11.5 5 39.5 23.722 55.5 30 17.778 6.975 36 15.5 47 12.5 10.824-2.952 13.329-12.406 15-23.5.754-5-3.003-16.734-6.5-27-6.451-18.941-14.991-27.394-24.5-45-12.204-22.598-31-58-31-58s4.5-12.5-5.5-18c-6.644-3.654-14.453-1.17-20 4-7 6.525-.5 22.5 2 29.5s12.5 26.5 32.5 57 24.5 54 24.5 54l-82-41.5c-32.023-16.207-48.472-16.219-55.5-17-13.5-1.5-19.933 1.7-21.5 11"/>
        <path class="fill-path" fill-rule="evenodd" d="M470.067 415.162c1.363-3.483 5.148-9.099 10.668-12.155 4.556-2.523 9.906-3.275 14.802-3.187 4.899.088 9.384 1.019 12.241 1.9 13.883 4.278 20.498 7.815 33.495 13.569 7.224 3.197 16.191 7.853 23.344 11.705a683 683 0 0 1 12.267 6.77l.027.015.126-.059a38.944 38.944 0 0 1 4.248-1.669c2.591-.842 5.904-1.585 8.536-1.014 4.951 1.075 7.411 3.61 10.413 7.513 1.188 1.545 2.223 3.782 2.955 5.602a50 50 0 0 1 1.102 3.03l.016.053q.138.06.362.16a178.008 178.008 0 0 1 6.633 3.146c4.027 2.016 8.957 4.689 12.496 7.292 3.725 2.739 6.545 4.679 9.141 7.063 2.608 2.396 4.989 5.238 7.881 9.797 3.09 4.871.603 10.352-3.438 14.141-3.88 3.638-9.307 4.506-13.33 2.911-6.246-2.476-8.327-3.491-10.368-4.991-1.003-.738-2.008-1.602-3.486-2.794-1.488-1.2-3.488-2.76-6.521-4.922-.761-.543-3.476-2.213-6.483-3.971-3.005-1.757-6.261-3.577-8.097-4.424-1.744-.804-3.782-1.336-5.398-1.667a36 36 0 0 0-2.536-.426l-.374.397a734.858 734.858 0 0 1-6.61 6.906c-4.098 4.225-9.247 9.426-13.44 13.319-4.625 4.293-10.789 9.504-15.792 13.638a753 753 0 0 1-8.176 6.656l-.34.27.094.143.912 1.394c.775 1.186 1.858 2.845 3.087 4.734 2.458 3.777 5.504 8.479 7.853 12.172 6.005 9.442 10.547 14.282 15.255 24.571 1.67 3.65 3.462 6.896 4.313 10.009.866 3.167.785 6.262-1.277 9.658-1.372 2.259-2.924 3.947-4.806 5.155-1.882 1.207-4.066 1.916-6.676 2.26-2.334.308-4.616-.504-6.693-1.829-2.078-1.328-3.995-3.196-5.62-5.082-1.627-1.889-2.977-3.812-3.918-5.26a48 48 0 0 1-1.457-2.389l-.02-.035-.005-.009-.001-.003-.005-.009-.004-.008-.018-.033-.07-.132-.271-.507-1.013-1.885c-.862-1.602-2.069-3.839-3.452-6.38-2.767-5.083-6.233-11.379-9.037-16.239-3.295-5.708-6.097-10.026-8.876-14.372s-5.534-8.718-8.723-14.52c-5.854-10.65-9.27-16.265-14.564-27.242-6.959-14.43-12.072-22.61-16.62-38.08-.862-2.933-1.839-5.652-2.761-8.256-.92-2.597-1.789-5.084-2.423-7.525-1.273-4.895-1.614-9.645.432-14.875m31.165 14.134c-1.535-.647-3.109.846-2.536 2.41 2.294 6.251 6.756 18.185 10.021 25.497 3.951 8.848 10.348 21.406 13.002 26.563.596 1.158 2.151 1.375 3.061.433 3.124-3.232 9.548-9.832 14.003-14.093 5.012-4.793 13.044-11.249 17.079-14.434 1.129-.892.937-2.655-.364-3.248-5.562-2.536-18.07-8.185-26.544-11.606-8.416-3.398-21.25-8.791-27.722-11.522" clip-rule="evenodd"/>
        <path class="fill-path" d="M706.814 234.222c1.847 16.42 21.275 39.811 21.275 39.811s5.601-6.177 11.866-15.724c7.199-10.97 5.044-10.186 11.99-22.893 4.84-8.853 10.338-18.433 15.597-18.961 6.284-.631 12.184 3.536 15.097 9.714 2.726 5.782 1.59 12.001-.807 18.468-1.653 4.46-10.276 16.04-17.693 25.667-9.009 11.694-13.962 22.431-13.962 22.431s24.451 8.429 42.076-4.224c11.411-8.192 14.069-21.671 14.069-21.671s-1.315-12.376 3.869-15.692c4.613-2.95 9.684-2.43 15.335.663 9.905 5.422 7.01 16.86 5.31 26.661-1.886 10.869-12.189 26.069-27.463 34.686-11.917 6.723-20.453 9.395-35.402 8.288-12.843-.951-20.387-3.794-32.073-11.203-12.144-7.699-25.403-20.493-36.179-37.435-11.262-17.705-17.611-29.505-18.736-48.765-.976-16.691.404-34.721 9.617-39.61 6.34-3.364 13.63-3.929 20.044 1.621 4.444 3.846 6.434 13.117 6.434 13.117s-13.165 9.248-10.264 35.051M2250.83 634.868c1.7 9.498-9.8 12.424-21.07 14.725-19.1 3.899-29.6 7.406-47.52 14.725-11.27 4.601-38.71 21.832-54.39 27.609-17.42 6.419-35.28 14.265-46.06 11.504-10.6-2.716-13.06-11.418-14.69-21.627-.74-4.602 2.94-15.4 6.36-24.849 6.33-17.431 14.7-25.211 24.01-41.414 11.96-20.796 30.38-53.377 30.38-53.377s-4.41-11.504 5.39-16.566c6.51-3.363 14.16-1.077 19.6 3.681 6.86 6.005.49 20.707-1.96 27.149s-12.25 24.389-31.85 52.458-24.01 49.697-24.01 49.697l80.36-38.193c31.38-14.915 47.5-14.927 54.38-15.645 13.23-1.381 19.54 1.564 21.07 10.123"/>
        <path class="fill-path" fill-rule="evenodd" d="M2279.11 675.342c3.18 1.025 8.24 4.164 10.84 9.105 2.15 4.079 2.61 9.027 2.31 13.609-.3 4.585-1.37 8.844-2.32 11.578-4.61 13.281-8.2 19.716-14.15 32.275-3.31 6.981-8.05 15.694-11.96 22.654-1.95 3.482-3.7 6.529-4.96 8.705-.63 1.088-1.14 1.958-1.49 2.557-.18.299-.32.531-.41.688 0 .008-.01.017-.01.025.01.034.03.072.05.114.09.205.21.504.36.875.29.743.66 1.785 1 2.977.67 2.362 1.21 5.406.56 7.906-1.22 4.704-3.69 7.185-7.47 10.269-1.49 1.221-3.62 2.348-5.35 3.161-.87.41-1.65.745-2.21.978-.28.116-.51.207-.66.269a.3.3 0 0 0-.05.018c-.04.088-.1.206-.17.35-.16.347-.41.851-.71 1.476-.62 1.251-1.49 2.991-2.52 4.948-2.06 3.908-4.77 8.706-7.35 12.2-2.72 3.677-4.66 6.451-7 9.047-2.35 2.609-5.1 5.037-9.48 8.066-4.68 3.235-9.68 1.3-13.02-2.207-3.22-3.367-3.79-8.378-2.12-12.252 2.59-6.015 3.63-8.032 5.12-10.047.73-.99 1.58-1.991 2.76-3.458 1.18-1.476 2.73-3.456 4.88-6.445.54-.751 2.22-3.407 3.99-6.343s3.61-6.107 4.49-7.884c.82-1.688 1.41-3.631 1.79-5.165.19-.764.33-1.422.42-1.887.04-.215.07-.389.09-.513-.08-.078-.2-.186-.35-.321l-1.41-1.288a714 714 0 0 1-4.73-4.399c-3.75-3.529-8.37-7.972-11.81-11.614-3.79-4.017-8.37-9.407-12-13.789a569 569 0 0 1-4.51-5.527 94 94 0 0 1-1.32-1.641c-.1-.116-.17-.216-.24-.299-.04.03-.09.064-.14.099-.31.223-.77.547-1.34.951-1.14.809-2.73 1.939-4.55 3.223-3.63 2.567-8.15 5.749-11.69 8.208-9.07 6.285-13.79 10.876-23.59 16.01-3.47 1.821-6.58 3.727-9.52 4.745-2.99 1.035-5.87 1.179-8.94-.506-2.05-1.121-3.55-2.452-4.59-4.125s-1.6-3.664-1.81-6.079c-.18-2.16.68-4.35 2.01-6.386 1.33-2.038 3.16-3.963 4.99-5.616a55 55 0 0 1 6.76-5.184l.48-.306c.05-.035.1-.061.13-.079a.1.1 0 0 1 .03-.021c0-.002.01-.004.01-.005v-.002l.01-.005c0-.001 0-.003.01-.005a.1.1 0 0 0 .03-.018c.03-.017.07-.043.13-.076l.48-.289c.42-.253 1.04-.621 1.8-1.081 1.53-.92 3.67-2.208 6.1-3.682 4.86-2.948 10.89-6.636 15.54-9.604 5.47-3.486 9.62-6.413 13.79-9.32 4.18-2.908 8.38-5.794 13.93-9.189 10.19-6.23 15.57-9.824 26.04-15.554 13.76-7.533 21.61-12.895 36.23-18.249 2.77-1.015 5.35-2.121 7.82-3.169 2.46-1.045 4.82-2.034 7.12-2.801 4.62-1.538 9.06-2.196 13.85-.656m-14.58 30.137c.68-1.48-.65-2.845-2.13-2.198-5.93 2.59-17.25 7.611-24.21 11.184-8.42 4.323-20.41 11.197-25.34 14.046-1.1.64-1.38 2.108-.54 2.892 2.87 2.69 8.73 8.224 12.51 12.085 4.24 4.343 9.89 11.391 12.68 14.935.78.992 2.43.687 3.04-.571 2.62-5.38 8.44-17.474 12.01-25.638 3.55-8.11 9.15-20.49 11.98-26.735" clip-rule="evenodd"/><path class="fill-path" d="M1797.31 397.902c-2.2-4.461 2.5-8.256 4.93-12.158 3.75-6.014 7.61-9.316 13.02-13.915 14.13-12.011 19.96-18.301 33.44-30.135 16.28-15.41 26.56-22.762 42.83-38.172 16.28-15.411 35.72-29.573 35.72-29.573s11.71 4.316 9.34 12.084c-3.87 12.698-5.96 12.794-5.55 22.994.33 8.152.64 5.591 2.2 13.884 1.13 11.765-.15 16.422.55 23.078 0 0 11.13-10.195 22.77-17.687 3.69-2.371 12.57-4.794 15.59-1.75 3.19 3.218 3.56 8.955.25 12.219-8.48 8.36-12.01 11.5-12.01 11.5l-26.08 24.458c-10.55 9.396-6.85 5.774-15.35 13.955-6.59 6.343-10.94 9.148-17.76 15.226-11.07 9.861-17.25 15.433-28.64 24.915-9.84 8.193-24.72 21.807-24.72 21.807s-7.79-2.689-9.39-7.783c-2.09-6.632-2.84-9.393 1.93-13.636 4.76-4.242-7.45-4.797 13.42-21.651 13.32-10.749 11.52-6.067 26.37-15.85 15.46-10.186 20.87-14.802 24.16-17.738 3.3-2.936 6.62-25.031 6.04-30.286-1.01-8.982-3.38-27.679-3.38-27.679s-12.53 13.804-24.49 24.468c-13.13 11.697-32.73 30.932-32.73 30.932l-22.08 19.674c-7.25 6.46-12.25 8.584-17.03 10.525-4.77 1.941-11.31.428-13.35-3.706M2077.29 515.18c-16.05.809-41.57 18.046-41.57 18.046s5.03 5.723 13.19 12.279c9.38 7.533 8.97 5.425 20.05 12.817 7.72 5.151 16.03 10.974 15.7 16.041-.4 6.053-5.33 11.459-11.72 13.887-5.98 2.273-11.76.822-17.58-1.851-4.01-1.843-13.75-10.776-21.8-18.439-9.78-9.309-19.29-14.678-19.29-14.678s-11.97 22.919-2.64 40.533c6.04 11.404 18.54 14.736 18.54 14.736s12.08-.536 14.43 4.621c2.1 4.589.79 9.414-3.07 14.644-6.78 9.168-17.29 5.728-26.42 3.527-10.12-2.44-23.06-13.192-28.89-28.32-4.55-11.803-5.76-20.131-2.31-34.38 2.95-12.241 6.88-19.298 15.84-30.055 9.32-11.177 23.7-23.126 41.66-32.455 18.77-9.748 31.1-15.138 49.75-15.092 16.16.041 33.23 2.415 36.45 11.521 2.22 6.267 1.6 13.28-4.74 19.097-4.4 4.03-13.6 5.395-13.6 5.395s-6.78-13.146-31.98-11.874M1984.64 367.957c8.96-6.429 23.18-11.036 27.54-3.259 3.6 6.434-1.38 13.707-8.11 19.891-24.07 22.13-26.98 19.598-47.11 39.033-20.13 19.431-36.27 45.463-33.59 60.637 2.53 14.333 12.92 25.499 17.51 26.34 15.6 2.856 27.87-7.918 42.98-18.122 19.8-13.371 38.15-35.846 52.85-46.975 10.64-8.056 22.09-18.755 30.38-11.875 6.59 5.473 5.07 16.273-3.06 23.115-10.45 8.798-22.89 18.025-32.57 26.793-9.69 8.779-31.85 29.615-46.37 37.157-21.19 11.011-36.73 20.886-56.99 16.227-14.52-3.339-29.69-18.804-33.42-39.711-2.91-16.23 6.72-44.933 25.62-68.251 28.56-35.245 49.33-50.235 64.34-61"/><path class="fill-path" fill-rule="evenodd" d="M1151.1 124.7c3.16-1.371 9.28-2.538 14.85-.898 4.59 1.353 8.55 4.38 11.66 7.655 3.11 3.277 5.4 6.831 6.68 9.282 6.18 11.908 8.15 18.557 12.8 30.844 2.58 6.829 5.34 15.751 7.45 22.959 1.06 3.605 1.95 6.785 2.58 9.063.32 1.138.57 2.052.74 2.681.09.315.15.559.2.724v.027q.06.02.12.044a35.686 35.686 0 0 1 3.84 1.707c2.23 1.155 4.86 2.849 6.19 4.95 2.5 3.954 2.43 7.22 1.82 11.733-.24 1.786-1.03 3.922-1.74 5.587-.36.837-.71 1.567-.97 2.086-.12.259-.23.467-.3.61l-.03.045c.04.086.08.201.13.342.13.34.31.836.54 1.455.44 1.237 1.05 2.97 1.7 4.952 1.29 3.958 2.73 8.938 3.32 12.958.62 4.23 1.17 7.345 1.3 10.603.12 3.273-.2 6.687-1.31 11.555-1.18 5.2-6.37 7.132-11.46 6.941-4.89-.183-8.97-3.185-10.53-6.867-2.42-5.717-3.11-7.744-3.45-10.062-.16-1.139-.25-2.362-.43-4.109-.17-1.759-.45-4.088-1-7.488-.14-.854-.8-3.725-1.6-6.845-.79-3.119-1.71-6.443-2.35-8.201-.6-1.67-1.57-3.355-2.4-4.633a33 33 0 0 0-1.06-1.538c-.12-.171-.23-.308-.3-.405l-.5.013a680.88 680.88 0 0 1-8.79.148c-5.41.056-12.15.056-17.4-.167-5.8-.246-13.19-.907-19.13-1.506a686 686 0 0 1-9.64-1.043l-.4-.047-.03.154c-.08.354-.19.867-.32 1.507-.28 1.281-.66 3.072-1.1 5.109-.88 4.074-1.98 9.135-2.87 13.082-2.29 10.09-2.51 16.225-6.19 26.014-1.31 3.472-2.27 6.762-3.75 9.348-1.51 2.629-3.59 4.59-7.14 5.444-2.36.569-4.47.647-6.48.195-2-.451-3.88-1.425-5.79-2.916-1.72-1.334-2.66-3.362-3.14-5.59-.48-2.23-.5-4.705-.31-7a45.5 45.5 0 0 1 .9-5.998c.17-.781.33-1.419.44-1.863.06-.222.11-.396.14-.514.01-.059.03-.105.04-.136 0-.015.01-.027.01-.035v-.021c0-.001 0-.005.01-.008 0-.008 0-.019.01-.033.01-.029.02-.074.04-.132.03-.116.09-.287.15-.508.14-.443.33-1.088.58-1.892.49-1.609 1.17-3.858 1.94-6.421 1.53-5.125 3.4-11.5 4.76-16.506 1.6-5.879 2.61-10.53 3.65-15.185 1.04-4.654 2.12-9.31 3.85-15.181 3.17-10.777 4.63-16.676 8.38-27.298 4.93-13.963 6.96-22.646 14.13-35.702 1.36-2.474 2.51-4.886 3.61-7.186 1.1-2.295 2.17-4.484 3.35-6.489 2.38-4.021 5.26-7.336 10-9.394m10.93 29.679c-.57-1.429-2.57-1.492-3.22-.098-2.6 5.575-7.51 16.273-10.18 23.177-3.22 8.354-7.29 20.729-8.94 25.83-.38 1.144.49 2.308 1.69 2.293 4.14-.05 12.61-.122 18.27.034 6.38.175 15.79 1.253 20.49 1.832 1.31.162 2.34-1.111 1.88-2.351-1.94-5.306-6.34-17.203-9.59-24.999-3.22-7.743-8-19.687-10.4-25.718M1489.1 126.7c3.16-1.371 9.28-2.538 14.85-.898 4.59 1.353 8.55 4.38 11.66 7.655 3.11 3.277 5.4 6.831 6.68 9.282 6.18 11.908 8.15 18.557 12.8 30.844 2.58 6.829 5.34 15.751 7.45 22.959 1.06 3.605 1.95 6.785 2.58 9.063.32 1.138.57 2.052.74 2.681.09.315.15.559.2.724v.027q.06.02.12.044a35.686 35.686 0 0 1 3.84 1.707c2.23 1.155 4.86 2.849 6.19 4.95 2.5 3.954 2.43 7.22 1.82 11.733-.24 1.786-1.03 3.922-1.74 5.587-.36.837-.71 1.567-.97 2.086-.12.259-.23.467-.3.61l-.03.045c.04.086.08.201.13.342.13.34.31.836.54 1.455.44 1.237 1.05 2.97 1.7 4.952 1.29 3.958 2.73 8.938 3.32 12.958.62 4.23 1.17 7.345 1.3 10.603.12 3.273-.2 6.687-1.31 11.555-1.18 5.2-6.37 7.132-11.46 6.941-4.89-.183-8.97-3.185-10.53-6.867-2.42-5.717-3.11-7.744-3.45-10.062-.16-1.139-.25-2.362-.43-4.109-.17-1.759-.45-4.088-1-7.488-.14-.854-.8-3.725-1.6-6.845-.79-3.119-1.71-6.443-2.35-8.201-.6-1.67-1.57-3.355-2.4-4.633a33 33 0 0 0-1.06-1.538c-.12-.171-.23-.308-.3-.405l-.5.013a680.88 680.88 0 0 1-8.79.148c-5.41.056-12.15.056-17.4-.167-5.8-.246-13.19-.907-19.13-1.506a686 686 0 0 1-9.64-1.043l-.4-.047-.03.154c-.08.354-.19.867-.32 1.507-.28 1.281-.66 3.072-1.1 5.109-.88 4.074-1.98 9.135-2.87 13.082-2.29 10.09-2.51 16.225-6.19 26.014-1.31 3.472-2.27 6.762-3.75 9.348-1.51 2.629-3.59 4.59-7.14 5.444-2.36.569-4.47.647-6.48.195-2-.451-3.88-1.425-5.79-2.916-1.72-1.334-2.66-3.362-3.14-5.59-.48-2.23-.5-4.705-.31-7a45.5 45.5 0 0 1 .9-5.998c.17-.781.33-1.419.44-1.863.06-.222.11-.396.14-.514.01-.059.03-.105.04-.136 0-.015.01-.027.01-.035v-.021c0-.001 0-.005.01-.008 0-.008 0-.019.01-.033.01-.029.02-.074.04-.132.03-.116.09-.287.15-.508.14-.443.33-1.088.58-1.892.49-1.609 1.17-3.858 1.94-6.421 1.53-5.125 3.4-11.5 4.76-16.506 1.6-5.879 2.61-10.53 3.65-15.185 1.04-4.654 2.12-9.31 3.85-15.181 3.17-10.777 4.63-16.676 8.38-27.298 4.93-13.963 6.96-22.646 14.13-35.702 1.36-2.474 2.51-4.886 3.61-7.186 1.1-2.295 2.17-4.484 3.35-6.489 2.38-4.021 5.26-7.336 10-9.394m10.93 29.679c-.57-1.429-2.57-1.492-3.22-.098-2.6 5.575-7.51 16.273-10.18 23.177-3.22 8.354-7.29 20.729-8.94 25.83-.38 1.144.49 2.308 1.69 2.293 4.14-.05 12.61-.122 18.27.034 6.38.175 15.79 1.253 20.49 1.832 1.31.162 2.34-1.111 1.88-2.351-1.94-5.306-6.34-17.203-9.59-24.999-3.22-7.743-8-19.687-10.4-25.718" clip-rule="evenodd"/>
        <path class="fill-path" d="M1386.03 130.931c.38-5.41 2.79-8.518 5.58-10.522 2.8-2.004 9.72-4.899 15.37-2.505 3.83 1.626 7.51 5.511 7.91 7.516 3.73 18.539 1.92 18.881 2.8 33.571 1.19 20.009.81 20.009 1.19 44.093.39 24.928-2.38 29.916-3.65 40.415-2.14 17.671-4.71 22.85-8.12 29.725l-.13.276c-2.45 4.938-3.24 9.071-7.92 11.524-4.74 2.489-8.83 2.138-13.5-.501-3.53-1.994-6.85-3.728-6.98-8.017-.47-15.031 9.26-17.499 9.92-26.506 2.07-28.088 2-20.5 3-39.5.98-18.535-1.75-35.476-1.75-35.476l-3.26-36.076s-.63-5.667-.46-8.017M955.828 287.771c-4.922-1.327-6.645-5.747-7.973-10.167-2.048-6.811-1.942-11.897-1.772-19.006.443-18.565 1.633-27.12 1.772-45.085-.692-22.44.692-35.021 0-57.461s4.429-46.41 4.429-46.41 9.859-3.587 17.719 2.652c19.491 15.47 9.302 7.514 20.819 14.586 13.338 8.19 4.855 3.662 15.058 8.84 0 0-.88-6.188 1.33-19.89.7-4.338 4.91-12.587 9.3-12.818 4.65-.244 8.29 3.347 8.86 7.956 2.66 21.216 3.99 24.752 3.99 24.752s10.65-4.872 20.82-11.492c7.63-4.972 16.83-15.913 25.69-19.006 2.53-.885 8.86 6.629 10.19 16.354 1.62 11.846-.89 16.107-.89 30.498 0 17.68 1.44 27.667 1.78 45.527.27 14.858-.6 23.155-.89 38.013-.2 10.355 1.4 16.258 0 26.52-1.33 9.724 3.1 19.89-5.31 23.427-3.3 1.383-7.77 2.916-12.41.442-3.51-1.874-3.39-2.701-3.98-6.631-1.33-8.84.27-13.257.44-16.796.88-19.007-.85-24.986-1.33-43.317-.31-11.906-.73-18.589-.89-30.498-.21-16.578-.44-42.433-.44-42.433s-6.96 3.762-11.07 5.746c-5.18 2.497-9.06 1.962-13.74 5.304-5.62 4.023-9.74 7.24-9.74 14.145 0 14.144.15 12.577.88 20.774.82 9.113.89 14.278.89 23.426 0 14.845 1.4 23.177.89 38.013-.45 12.818 0 15.47-3.55 26.52-1.09 3.402-8.73 4.847-13.73 2.652-6.51-2.856-5.76-14.586-5.76-14.586v-16.354c0-6.387-.88-19.935-.88-32.709 0-18.642.88-43.317.88-47.736 0-4.42-11.958-11.084-16.387-14.145-7.571-5.231-20.82-11.05-20.82-11.05v115.806c0 9.724-.443 13.261-2.215 18.122s-7.398 8.744-11.96 7.515"/>
        <path class="fill-path" fill-rule="evenodd" d="M1283.5 120.5c21.32-3.233 43 2 53 13.5 10.53 12.112 13.24 25.019 9 40.5-5.88 21.465-34.41 34.458-34.5 34.5.06.049 15.98 12.282 25.5 21.5 10.92 10.569 21.5 18 25.5 28.5 2.06 5.403.79 11.124-3.5 15-5.74 5.185-14 3.5-20-4-9.14-11.431-14.15-16.173-25-26-8.41-7.621-14.5-11-23-18-10.47-8.626-24.93-5.516-25-5.5.02.057 7.31 20.782 8.5 34.5.81 9.337 2.5 21 1 24-3.28 6.564-9.23 10.017-16.5 9-9.85-1.38-12-22.452-12-22.5 0 0-3.8-27.378-5.5-45-1.96-20.259-4-40.5-4.5-53-.68-17-.24-15.918 4.5-25s24.71-19.303 42.5-22m7.5 25c-16.98 0-28.97 12.968-29 13 0 0 .77 10.365 1 17 .27 7.809.5 19.942.5 20 0 0 17.26-1.224 27.5-5 12.1-4.462 23.5-12 28-17.5s4.67-14.257 0-21c-4.5-6.5-16.77-6.5-28-6.5M1917.95 1955.48c9.96-5.85 17.11-6.74 27.83-3.98 10.09 2.61 16.09 6.4 23.34 15.89 11.2 14.67 11.72 29.96 11.87 50.62.13 18.6-.55 31.16-9.01 46.16-8.71 15.45-17.69 23.14-32.34 25.31-14.51 2.15-24.69-2.28-35.61-14.89-11.02-12.72-14.03-25.62-15.56-44.67-1.39-17.47.16-28.69 6.55-44.17 6.04-14.61 11.29-23.45 22.93-30.27m22.38 19.58c-6.77-1.81-11.34-1.07-17.6 2.68-7.66 4.59-10.68 10.86-14.5 20.45-4.2 10.57-5.05 18.07-4.14 29.85.99 12.69 2.43 21.56 9.84 30.17 6.87 7.99 13.26 11.43 22.52 10.06 9.5-1.4 14.94-7.18 20.45-17.1 5.68-10.22 5.78-18.68 5.7-31.18-.1-13.87.03-24.16-7.51-34.2-4.58-6.1-8.26-9-14.76-10.73" clip-rule="evenodd"/>
        <path class="fill-path" d="M2117.65 1753.4c-3.79-1.92-9.15-1.81-14 0-16.73 6.23-16.14 5.78-27.24 14.02-12.06 8.96-16.43 16.25-22.95 29.22-5.71 11.35-7.97 18.53-9.34 31.17-1.76 16.32-2.39 27.27 5.45 41.68 6.32 11.62 12.86 16.84 24.12 23.77 10.44 6.42 16.49 8.62 28.79 11.29 8.95 1.95 15.94 2.15 24.9-.78 5.82-1.9 10.07-3.44 14.39-7.79l.18-.17c3.56-3.59 5.97-6.02 6.05-11.12.08-5.33-1.81-10.58-7.01-11.69-5.44-1.17-8.17 0-13.61 1.95-6.75 2.41-9.99 5.86-17.12 6.62-9.16.98-14.87-1.02-22.95-5.45-7.45-4.09-9.34-6.63-14.4-12.47s-4.93-16.41-4.67-25.71c.29-10.11.95-15.88 5.45-24.94 3.74-7.52 6.41-11.7 12.45-17.53 6.83-6.59 11.31-8.7 19.84-12.85 5.89-2.87 12.69-.8 16.34-6.24 2.75-4.08 2.95-7.64 1.95-12.46-1-4.75-2.29-8.33-6.62-10.52M2201.83 1031.36c-3.75 4.94-1.03 13.37 1.83 21.27 4.83 13.39 7.04 21.61 10.35 36.46 2.08 9.34 5.11 35.82 8.22 48.42 3.45 14 6.55 29.14 10.96 33.61 4.33 4.4 8.05.39 12.01-5.03 1.79-2.44 4.24-11.28 6.31-19.13 3.83-14.49 3.76-24.14 6.21-39.58 3.15-19.82 8.19-50.68 8.19-50.68s5.29-4.64 3.84-13.42c-.97-5.83-4.2-8.8-7.55-8.96-4.23-.2-7.13 12.62-8.51 18.04s-4.27 22.22-7.4 50.95c-3.14 28.74-9 44.74-9 44.74l-13.02-69.92c-5.09-27.31-10.27-36.57-12.25-40.98-3.79-8.45-6.82-10.24-10.19-5.79"/>
        <path class="fill-path" fill-rule="evenodd" d="M2303.36 1575.44c1.93-1.16 5.68-2.15 9.09-.76 2.81 1.14 5.24 3.7 7.14 6.47 1.91 2.77 3.31 5.77 4.09 7.84 3.79 10.07 4.99 15.69 7.84 26.07 1.58 5.78 3.27 13.32 4.56 19.41.65 3.05 1.2 5.73 1.59 7.66.19.96.34 1.74.45 2.27.05.26.09.47.12.61v.02c.02.01.05.02.07.04a18.297 18.297 0 0 1 2.35 1.44c1.37.98 2.98 2.41 3.79 4.19 1.53 3.34 1.49 6.1 1.12 9.91-.15 1.51-.63 3.32-1.07 4.72-.22.71-.43 1.33-.59 1.77-.08.22-.14.39-.19.51 0 .02-.01.03-.01.04.02.07.05.17.08.29.08.29.19.71.33 1.23.27 1.05.64 2.51 1.04 4.19.79 3.34 1.67 7.55 2.03 10.95.38 3.57.72 6.21.8 8.96.07 2.77-.12 5.65-.8 9.77-.73 4.39-3.91 6.03-7.02 5.86-3-.15-5.5-2.69-6.45-5.8-1.49-4.83-1.9-6.55-2.11-8.5-.1-.97-.16-2-.27-3.48-.1-1.48-.27-3.45-.61-6.33-.08-.72-.49-3.15-.98-5.78-.49-2.64-1.05-5.45-1.44-6.93-.37-1.42-.96-2.84-1.47-3.92-.25-.54-.48-.99-.65-1.3-.07-.14-.14-.26-.18-.34-.08 0-.18 0-.31.01q-.435.015-1.23.03c-1.04.03-2.49.07-4.15.09-3.32.05-7.44.05-10.66-.14-3.55-.21-8.08-.76-11.71-1.27-1.82-.25-3.42-.49-4.56-.67-.57-.09-1.03-.16-1.35-.21-.09-.02-.17-.03-.24-.04-.01.04-.01.08-.02.13-.05.3-.11.73-.2 1.27-.16 1.08-.4 2.6-.67 4.32-.54 3.44-1.21 7.72-1.76 11.06-1.4 8.53-1.53 13.71-3.79 21.99-.8 2.93-1.39 5.71-2.29 7.9-.93 2.22-2.2 3.88-4.38 4.6-1.44.48-2.73.54-3.96.16s-2.38-1.2-3.55-2.46c-1.05-1.13-1.63-2.84-1.92-4.73-.29-1.88-.31-3.97-.2-5.91.12-1.95.35-3.75.56-5.07.1-.66.2-1.2.27-1.58.03-.18.06-.33.08-.43q.015-.075.03-.12v-.04h.01v-.04a.5.5 0 0 0 .03-.11l.09-.43c.09-.37.21-.92.36-1.6.3-1.36.71-3.26 1.18-5.43.94-4.33 2.09-9.72 2.92-13.95.98-4.97 1.6-8.9 2.24-12.83.64-3.94 1.29-7.87 2.35-12.83 1.95-9.11 2.84-14.1 5.14-23.08 3.01-11.8 4.26-19.14 8.65-30.17.83-2.1 1.53-4.13 2.21-6.08.68-1.94 1.33-3.79 2.05-5.48 1.46-3.4 3.22-6.2 6.13-7.94m6.69 25.08c-.35-1.21-1.57-1.26-1.97-.08-1.59 4.71-4.6 13.75-6.23 19.59-1.98 7.06-4.47 17.52-5.48 21.83-.23.97.3 1.95 1.04 1.94 2.53-.04 7.71-.1 11.18.03 3.91.15 9.67 1.06 12.55 1.55.8.14 1.43-.94 1.15-1.99-1.19-4.48-3.88-14.54-5.87-21.13-1.97-6.54-4.9-16.64-6.37-21.74M2295.83 1036.44c1.57-1.16 4.61-2.15 7.37-.76 2.28 1.14 4.24 3.7 5.78 6.47 1.55 2.77 2.69 5.77 3.32 7.84 3.07 10.07 4.04 15.69 6.35 26.07 1.28 5.78 2.65 13.32 3.7 19.41.52 3.05.96 5.73 1.28 7.66.15.96.28 1.74.36 2.27.04.26.08.47.1.61v.02c.02.01.04.02.06.04.11.07.27.17.45.3.38.26.9.65 1.46 1.14 1.1.98 2.41 2.41 3.07 4.19 1.24 3.34 1.2 6.1.9 9.91-.12 1.51-.51 3.32-.87 4.72-.17.71-.35 1.33-.47 1.77q-.105.33-.15.51c-.01.02-.01.03-.02.04.02.07.04.17.07.29.06.29.15.71.26 1.23.23 1.05.53 2.51.85 4.19.64 3.34 1.35 7.55 1.64 10.95.31 3.57.59 6.21.65 8.96.06 2.77-.1 5.65-.65 9.77-.59 4.39-3.16 6.03-5.69 5.86-2.42-.15-4.45-2.69-5.22-5.8-1.2-4.83-1.54-6.55-1.71-8.5-.08-.97-.12-2-.21-3.48s-.23-3.45-.5-6.33c-.07-.72-.4-3.15-.79-5.78-.4-2.64-.85-5.45-1.17-6.93-.3-1.42-.78-2.84-1.19-3.92-.21-.54-.39-.99-.53-1.3-.06-.14-.11-.26-.15-.34-.06 0-.14 0-.24.01-.24.01-.58.02-1 .03-.84.03-2.02.07-3.37.09-2.68.05-6.02.05-8.63-.14-2.87-.21-6.54-.76-9.49-1.27-1.47-.25-2.77-.49-3.69-.67-.47-.09-.84-.16-1.09-.21-.08-.02-.14-.03-.2-.04 0 .04-.01.08-.01.13-.04.3-.1.73-.16 1.27-.14 1.08-.33 2.6-.55 4.32-.43 3.44-.98 7.72-1.42 11.06-1.14 8.53-1.25 13.71-3.07 21.99-.65 2.93-1.13 5.71-1.86 7.9-.75 2.22-1.78 3.88-3.55 4.6-1.17.48-2.21.54-3.21.16s-1.93-1.2-2.88-2.46c-.85-1.13-1.31-2.84-1.55-4.73-.24-1.88-.25-3.97-.16-5.91.09-1.95.28-3.75.45-5.07.08-.66.16-1.2.22-1.58.03-.18.05-.33.07-.43.01-.05.01-.09.02-.12v-.04h.01v-.04c.01-.02.01-.06.02-.11.02-.1.05-.24.08-.43.07-.37.16-.92.29-1.6.24-1.36.58-3.26.96-5.43.76-4.33 1.68-9.72 2.36-13.95.79-4.97 1.29-8.9 1.81-12.83.52-3.94 1.05-7.87 1.91-12.83 1.57-9.11 2.3-14.1 4.16-23.08 2.44-11.8 3.45-19.14 7.01-30.17.67-2.1 1.24-4.13 1.79-6.08.55-1.94 1.07-3.79 1.66-5.48 1.18-3.4 2.61-6.2 4.96-7.94m5.42 25.08c-.28-1.21-1.27-1.26-1.59-.08-1.29 4.71-3.73 13.75-5.05 19.59-1.6 7.06-3.62 17.52-4.44 21.83-.18.97.24 1.95.84 1.94 2.05-.04 6.25-.1 9.07.03 3.16.15 7.83 1.06 10.16 1.55.65.14 1.16-.94.93-1.99-.96-4.48-3.14-14.54-4.75-21.13-1.6-6.54-3.97-16.64-5.17-21.74" clip-rule="evenodd"/>
        <path class="fill-path" d="M2324.02 1409.76c.33-3.79 2.39-5.97 4.77-7.37 2.39-1.41 8.3-3.43 13.12-1.76 3.27 1.14 6.41 3.86 6.76 5.27 3.18 12.98.39 13.34 2.38 23.51 2.33 11.95 2.13 17.55 3.58 30.89 1.89 17.4 4.37 36.86 4.37 44.58 0 12.63-.61 18.95-3.58 23.87-2.09 3.46-2.76 6.35-6.75 8.07-4.05 1.74-7.54 1.5-11.53-.35-3.01-1.4-5.85-2.61-5.96-5.62-.4-10.53 1.99-19.3 1.59-25.62-.82-12.94-1.13-20.08-2.39-32.99-1.2-12.32-3.18-31.59-3.18-31.59l-2.78-25.28s-.54-3.97-.4-5.61M2158.02 1778.76c.33-3.79 2.39-5.97 4.77-7.37 2.39-1.41 8.3-3.43 13.12-1.76 3.27 1.14 6.41 3.86 6.76 5.27 3.18 12.98.39 13.34 2.38 23.51 2.33 11.95 2.13 17.55 3.58 30.89 1.89 17.4 4.37 36.86 4.37 44.58 0 12.63-.61 18.95-3.58 23.87-2.09 3.46-2.76 6.35-6.75 8.07-4.05 1.74-7.54 1.5-11.53-.35-3.01-1.4-5.85-2.61-5.96-5.62-.4-10.53 1.99-19.3 1.59-25.62-.82-12.94-1.13-20.08-2.39-32.99-1.2-12.32-3.18-31.59-3.18-31.59l-2.78-25.28s-.54-3.97-.4-5.61M2005.5 2084.81c-3.92-1.11-3.68-6.15-4.73-9.83-1.63-5.68-1.55-9.92-1.41-15.85.35-15.48-.31-22.61-.2-37.59-.55-18.71.55-29.2 0-47.91s1.37-38.69 1.37-38.69 8.99-4.91 12.44.89c5.63 9.47 4.56 10.82 10.99 16.23 5.15 4.33 3.76 2.71 9.66 6.35 7.77 5.83 9.92 9.21 14.35 12.48 0 0-.17-12.6 1.59-24.03.56-3.61 3.9-10.49 7.4-10.68 3.69-.21 7.38 2.75 7.58 6.63.48 9.93.48 13.87.48 13.87l.74 29.85c0 11.8-.2 7.48.17 17.32.28 7.64-.37 11.91-.37 19.54 0 12.37.04 19.32-.37 31.69-.35 10.69-.13 27.52-.13 27.52s-5.87 3.37-9.85 1.54c-5.17-2.38-7.26-3.46-7.26-8.78 0-5.33-6.96 1.97-5.9-20.4.68-14.27 2.56-10.55 4.66-25.24 2.19-15.3 2.32-21.24 2.32-24.92 0-3.69-11.66-18.04-15.18-20.59-6.02-4.36-18.69-13.27-18.69-13.27s1.61 15.47 1.61 28.86c0 14.68 1.07 37.59 1.07 37.59v24.69c0 8.11-1.43 12.41-2.84 16.46-1.4 4.06-5.88 7.29-9.5 6.27M2343.56 1167.81c-2.75-1.11-2.58-6.15-3.32-9.83-1.14-5.68-1.08-9.92-.99-15.85.25-15.48-.22-22.61-.14-37.59-.38-18.71.39-29.2 0-47.91-.38-18.71.97-38.69.97-38.69s6.3-4.91 8.72.89c3.95 9.47 3.2 10.82 7.71 16.23 3.61 4.33 2.63 2.71 6.77 6.35 5.46 5.83 6.96 9.21 10.07 12.48 0 0-.12-12.6 1.12-24.03.39-3.61 2.73-10.49 5.19-10.68 2.59-.21 5.18 2.75 5.31 6.63.34 9.93.34 13.87.34 13.87l.52 29.85c0 11.8-.14 7.48.12 17.32.2 7.64-.26 11.91-.26 19.54 0 12.37.03 19.32-.26 31.69-.24 10.69-.09 27.52-.09 27.52s-4.12 3.37-6.91 1.54c-3.63-2.38-5.09-3.46-5.09-8.78 0-5.33-4.89 1.97-4.14-20.4.48-14.27 1.8-10.55 3.27-25.24 1.54-15.3 1.62-21.24 1.62-24.92 0-3.69-8.17-18.04-10.64-20.59-4.22-4.36-13.12-13.27-13.12-13.27s1.13 15.47 1.13 28.86c0 14.68.75 37.59.75 37.59v24.69c0 8.11-.99 12.41-1.98 16.46-.99 4.06-4.13 7.29-6.67 6.27M2336.56 1247.15c-7.89 11.06-10.98 37.92-10.98 37.92s6.02 0 14.16-1.58c9.36-1.82 7.89-2.77 18.06-5.79 7.08-2.11 14.86-4.22 17.7-1.06 3.38 3.78 4.01 10.18 2.12 15.8-1.77 5.27-5.65 8.25-10.27 10.54-3.18 1.58-13.55 2.82-22.3 3.68-10.62 1.06-18.76 4.22-18.76 4.22s7.35 21.21 22.66 25.28c9.91 2.63 18.4-3.69 18.4-3.69s5.98-8.29 10.27-6.85c3.81 1.28 5.99 4.95 7.08 10.54 1.9 9.79-5.62 14.73-11.68 19.48-6.73 5.27-19.85 7.57-31.86 2.64-9.37-3.85-14.94-7.89-21.6-18.44-5.71-9.06-7.85-15.75-9.55-27.91-1.77-12.64-1.36-29.07 2.47-46.35 4.01-18.05 7.24-29.32 17-41.6 8.45-10.65 18.76-20.54 25.84-17.38 4.87 2.17 8.71 6.65 8.85 14.22.1 5.24-3.9 12.11-3.9 12.11s-11.32-3.16-23.71 14.22M2325.08 869.027c-9.75 10.489-13.57 35.962-13.57 35.962s7.44 0 17.51-1.499c11.57-1.721 9.76-2.626 22.33-5.494 8.76-1.998 18.39-3.996 21.89-.999 4.19 3.581 4.97 9.647 2.63 14.985-2.19 4.994-6.98 7.816-12.7 9.989-3.94 1.498-16.77 2.674-27.58 3.496-13.14.999-23.21 3.996-23.21 3.996s9.09 20.118 28.03 23.975c12.26 2.497 22.76-3.496 22.76-3.496s7.4-7.859 12.7-6.493c4.72 1.215 7.42 4.689 8.76 9.989 2.35 9.291-6.95 13.977-14.45 18.481-8.32 4.994-24.55 7.175-39.41 2.497-11.59-3.65-18.47-7.481-26.7-17.482-7.08-8.591-9.72-14.935-11.83-26.472-2.19-11.987-1.67-27.57 3.07-43.954 4.96-17.121 8.95-27.807 21.01-39.458 10.46-10.098 23.21-19.48 31.97-16.483 6.02 2.062 10.77 6.311 10.94 13.486.12 4.971-4.81 11.488-4.81 11.488s-14.01-2.997-29.34 13.486M2254.21 1450.08c-.02 21.06-2.05 53.82-2.05 53.82s22.95-4.78 36.81 0c7.87 2.71 15.68 4.27 19.09 10.68 1.14 2.13 1.59 10.68-.68 14.09-1.71 2.57-3.41 4.7-8.18 4.28-6.14-2.14-2.79-4.2-5.11-4.28-7.61-.26-11.83-1.35-19.43-1.7-8.78-.42-13.8-.73-22.5.85-6.13 1.12-7.84 4.7-16.02 4.27-6.28-.33-5.91-8.11-6.13-11.53-.23-3.42 4.77-12.39 6.13-16.66 1.37-4.27 2.39-15.81 2.39-26.06 0-24.35-1.02-42.71-1.71-51.68-.9-11.96-2.04-26.06-.68-30.76 1.83-6.28 3.34-9.51 7.5-9.4 4.06.11 6.96 4.44 7.84 9.4 3.41 19.22 2.74 33.28 2.73 54.68M2271.5 1233.5c-5.04 2.2-13.5-4-13.5-4s-17 11.5-23.5 33.5c-4.93 16.69-6 17.5-6 44 0 16.5 16.06 28.84 32 25.5 10.56-2.21 16.68-8.41 20.5-18.5 3.9-10.31-3.5-28-3.5-28s-3.73 1.53-6 2.94c-2.5 1.56-4.53 3.69-6 4.06-4 1-8.5-2.46-9.5-3.5-5.55-5.77-4.3-14.5 1-20.5 7.5-8.5 24.57-7.33 36.5.5 9 5.9 15.5 34.5 5 55.5-6.92 13.84-13.59 24.37-28 30-16.15 6.31-29 4-43-7-13.64-10.71-22.83-34-22-49 2-36 5.5-41 20-68.5 7-13.28 18.79-21.04 34-24.5 11-2.5 17.11 5.69 18 14 .61 5.74-.71 11.19-6 13.5M2169.2 1624.13c4.62 2.04 12.46-3.5 12.46-3.5s11.86-2.37 19.45-3.25c7.6-.87 19.45-1.24 19.45-1.24s-10.31 21.62-16.95 35.45c-8.54 17.77-15.46 32.96-19.95 44.45-2.87 7.35-7.47 14.49-4.99 21.97 1.88 5.67 9.48 11.99 9.48 11.99s19.94-6.49 46.87-6.49c12.47 0 26.93 5.49 26.93 5.49s3.5-6.14 4.49-10.49c1.21-5.32 2.81-9.3 0-13.98-4.49-7.49-17.45-6.99-23.94-7.49-13.78-1.06-35.4 0-35.4 0s8.76-24.77 15.95-39.95c7.85-16.57 14.96-23.97 23.94-40.95 2.61-4.94 2.49-17.48-5.98-22.48-4.87-2.86-21.95-1.2-28.43-1-18.06.56-25.43 3.5-32.91 6-6.31 2.1-12.6 4.99-14.46 9.98-2.19 5.85-1.72 12.96 3.99 15.49"/>
        <path class="fill-path" fill-rule="evenodd" d="M920.676 2229.34c12.539-6.77 21.524-7.8 35.019-4.6 12.694 3.01 20.239 7.4 29.354 18.38 14.099 16.98 14.754 34.67 14.935 58.58.166 21.52-.685 36.05-11.33 53.41-10.963 17.88-22.253 26.78-40.684 29.29-18.263 2.48-31.068-2.64-44.804-17.23-13.859-14.72-17.651-29.65-19.569-51.69-1.76-20.22.196-33.2 8.239-51.11 7.593-16.91 14.2-27.14 28.84-35.03m28.163 22.66c-8.524-2.1-14.27-1.24-22.145 3.1-9.634 5.31-13.44 12.57-18.237 23.67-5.286 12.22-6.359 20.9-5.21 34.53 1.237 14.68 3.047 24.95 12.374 34.92 8.648 9.24 16.681 13.22 28.333 11.64 11.955-1.62 18.797-8.31 25.727-19.79 7.142-11.83 7.273-21.62 7.164-36.08-.12-16.05.039-27.96-9.444-39.58-5.76-7.06-10.385-10.41-18.562-12.41" clip-rule="evenodd"/>
        <path class="fill-path" d="M840.652 2215.52c-3.795-2.09-9.155-1.96-14.005 0-16.729 6.76-16.138 6.27-27.233 15.21-12.06 9.71-16.434 17.62-22.954 31.68-5.706 12.31-7.97 20.1-9.337 33.8-1.766 17.7-2.396 29.57 5.447 45.2 6.321 12.6 12.862 18.26 24.121 25.77 10.44 6.97 16.489 9.35 28.789 12.25 8.948 2.11 15.945 2.33 24.898-.84 5.822-2.07 10.077-3.74 14.395-8.45l.176-.19c3.56-3.89 5.972-6.52 6.049-12.06.08-5.77-1.806-11.47-7.003-12.68-5.447-1.26-8.17 0-13.617 2.12-6.749 2.61-9.992 6.35-17.117 7.18-9.161 1.06-14.873-1.11-22.954-5.92-7.45-4.43-9.337-7.18-14.394-13.52-5.058-6.33-4.933-17.79-4.669-27.88.287-10.96.942-17.22 5.447-27.04 3.741-8.15 6.409-12.68 12.449-19.01 6.829-7.15 11.31-9.43 19.841-13.94 5.887-3.11 12.687-.86 16.34-6.76 2.746-4.43 2.953-8.29 1.945-13.52-.993-5.15-2.288-9.03-6.614-11.4"/>
        <path class="fill-path" fill-rule="evenodd" d="M1588.84 2227.68c2.69-1.36 7.91-2.51 12.66-.89 3.92 1.34 7.29 4.33 9.94 7.57 2.65 3.23 4.61 6.75 5.7 9.17 5.27 11.76 6.95 18.33 10.91 30.47 2.21 6.75 4.56 15.57 6.36 22.69.9 3.56 1.66 6.7 2.2 8.96.27 1.12.48 2.02.63 2.64.07.32.13.56.16.72.01.01.01.02.01.03.03.01.07.02.1.04.19.08.45.2.78.35.65.31 1.54.76 2.5 1.34 1.9 1.14 4.14 2.81 5.27 4.89 2.13 3.9 2.08 7.13 1.56 11.59-.21 1.77-.88 3.88-1.49 5.52-.31.83-.6 1.55-.82 2.06-.11.26-.2.46-.26.61-.01.01-.02.03-.02.04.02.08.06.2.11.34.1.33.26.82.45 1.44.38 1.22.9 2.93 1.45 4.89 1.1 3.91 2.33 8.83 2.83 12.8.53 4.18 1.01 7.26 1.11 10.48.1 3.23-.17 6.61-1.11 11.42-1.01 5.13-5.44 7.04-9.78 6.86-4.17-.19-7.64-3.15-8.98-6.79-2.06-5.65-2.64-7.65-2.93-9.94-.15-1.13-.22-2.34-.37-4.06-.15-1.74-.39-4.04-.86-7.4-.11-.85-.68-3.68-1.36-6.77-.68-3.08-1.46-6.36-2-8.1-.51-1.65-1.34-3.31-2.05-4.58-.35-.62-.67-1.15-.9-1.52-.11-.16-.2-.3-.26-.4-.1.01-.25.01-.43.02-.4.01-.98.02-1.71.04-1.45.03-3.48.08-5.78.1-4.62.06-10.36.06-14.84-.16-4.95-.25-11.25-.9-16.31-1.49-2.54-.3-4.76-.58-6.35-.78-.8-.11-1.44-.19-1.87-.25-.13-.02-.25-.03-.34-.05-.01.05-.02.1-.03.16-.06.34-.16.85-.27 1.48-.24 1.27-.56 3.04-.94 5.05-.75 4.03-1.69 9.03-2.45 12.93-1.95 9.97-2.14 16.03-5.28 25.7-1.11 3.43-1.93 6.68-3.19 9.24-1.29 2.6-3.06 4.53-6.09 5.38-2.02.56-3.81.64-5.53.19-1.71-.44-3.31-1.41-4.94-2.88-1.46-1.32-2.26-3.32-2.67-5.52-.41-2.21-.42-4.65-.27-6.92a53.4 53.4 0 0 1 1.15-7.77c.05-.22.09-.39.11-.51.02-.05.03-.1.04-.13 0-.01 0-.03.01-.03v-.03c.01-.01.01-.02.01-.04.01-.02.02-.07.04-.13.03-.11.07-.28.13-.5.12-.44.28-1.07.49-1.87.42-1.59 1-3.81 1.65-6.34 1.31-5.07 2.91-11.37 4.07-16.31 1.36-5.81 2.22-10.41 3.11-15.01.89-4.59 1.8-9.19 3.28-15 2.7-10.64 3.95-16.47 7.15-26.97 4.2-13.8 5.94-22.37 12.05-35.28 1.16-2.44 2.13-4.82 3.07-7.1.94-2.26 1.85-4.43 2.86-6.41 2.03-3.97 4.49-7.25 8.53-9.28m9.32 29.33c-.49-1.42-2.19-1.48-2.75-.1-2.21 5.51-6.4 16.08-8.68 22.9-2.75 8.25-6.22 20.48-7.63 25.52-.31 1.13.42 2.28 1.45 2.27 3.53-.05 10.75-.12 15.58.03 5.44.17 13.47 1.24 17.47 1.81 1.12.16 1.99-1.1 1.61-2.32-1.66-5.24-5.41-17-8.18-24.7-2.75-7.65-6.82-19.46-8.87-25.41" clip-rule="evenodd"/>
        <path class="fill-path" d="M1380.02 2240.75c.31-4.18 2.25-6.57 4.5-8.12s7.82-3.78 12.37-1.93c3.08 1.25 6.04 4.25 6.37 5.8 2.99 14.3.37 14.69 2.25 25.9 2.19 13.16 2 19.33 3.37 34.02 1.78 19.16 4.12 40.59 4.12 49.1 0 13.92-.58 20.88-3.37 26.29-1.97 3.81-2.61 7-6.37 8.89-3.82 1.92-7.11 1.65-10.87-.39-2.84-1.54-5.52-2.87-5.62-6.18-.38-11.6 1.87-21.27 1.5-28.22-.77-14.25-1.07-22.13-2.25-36.35-1.13-13.56-3-34.79-3-34.79l-2.62-27.84s-.51-4.37-.38-6.18M1292.95 2380.78c-4.79-1.26-4.49-6.99-5.79-11.18-1.99-6.47-1.89-11.3-1.72-18.04.43-17.62-.38-25.74-.25-42.78-.67-21.3.68-33.24 0-54.53-.67-21.3 1.69-44.04 1.69-44.04s11-5.59 15.22 1.01c6.89 10.78 5.58 12.32 13.45 18.48 6.3 4.92 4.6 3.08 11.82 7.22 9.51 6.64 12.14 10.49 17.56 14.2 0 0-.2-14.34 1.95-27.34.68-4.12 4.77-11.95 9.05-12.17 4.52-.23 9.04 3.14 9.28 7.55.59 11.31.59 15.79.59 15.79l.91 33.98c0 13.42-.25 8.51.2 19.71.35 8.69-.45 13.55-.45 22.23 0 14.09.05 22-.45 36.08-.43 12.16-.17 31.32-.17 31.32s-7.18 3.83-12.04 1.75c-6.34-2.71-8.89-3.93-8.89-9.99s-8.52 2.24-7.22-23.22c.83-16.24 3.13-12.01 5.7-28.73 2.68-17.41 2.84-24.17 2.84-28.36 0-4.2-14.27-20.53-18.58-23.43-7.36-4.97-22.88-15.11-22.88-15.11s1.97 17.61 1.97 32.85c0 16.71 1.32 42.78 1.32 42.78v28.1c0 9.23-1.75 14.13-3.47 18.74-1.73 4.62-7.2 8.3-11.64 7.13M1035.5 2378.78c-4.26-1.28-5.75-5.53-6.9-9.78-1.77-6.56-1.68-11.45-1.53-18.29.39-17.86 1.42-26.09 1.53-43.38-.59-21.59.6-33.69 0-55.28-.59-21.6 3.84-44.66 3.84-44.66s8.53-3.45 15.33 2.55c16.86 14.89 8.05 7.23 18.01 14.04 11.54 7.88 4.2 3.52 13.03 8.5 0 0-.76-5.95 1.15-19.14.61-4.17 4.25-12.11 8.05-12.33 4.02-.23 7.17 3.22 7.67 7.66 2.3 20.41 3.45 23.81 3.45 23.81s9.22-4.69 18.01-11.06c6.61-4.78 14.57-15.31 22.23-18.28 2.19-.85 7.67 6.38 8.82 15.73 1.4 11.4-.77 15.5-.77 29.35 0 17.01 1.25 26.62 1.53 43.8.24 14.3-.52 22.28-.76 36.58-.17 9.96 1.21 15.64 0 25.51-1.15 9.36 2.68 19.14-4.6 22.54-2.85 1.33-6.72 2.81-10.73.43-3.04-1.8-2.94-2.6-3.45-6.38-1.15-8.51.24-12.76.38-16.16.77-18.29-.74-24.04-1.15-41.68-.27-11.46-.63-17.89-.77-29.34-.18-15.95-.38-40.83-.38-40.83s-6.02 3.62-9.58 5.53c-4.48 2.4-7.84 1.88-11.88 5.1-4.87 3.87-8.44 6.97-8.44 13.61 0 13.61.14 12.1.77 19.99.7 8.77.77 13.74.77 22.54 0 14.28 1.21 22.3.76 36.57-.38 12.34 0 14.89-3.06 25.52-.95 3.27-7.56 4.66-11.88 2.55-5.64-2.75-4.99-14.03-4.99-14.03v-15.74c0-6.14-.76-19.18-.76-31.47 0-17.94.76-41.68.76-45.93s-10.34-10.66-14.18-13.61c-6.55-5.03-18.01-10.63-18.01-10.63v111.42c0 9.36-.38 12.76-1.92 17.44-1.53 4.68-6.4 8.41-10.35 7.23M1160.14 2229.81c.79-10.29 5.97-23.25 14.03-21.68 6.66 1.3 8.83 9.25 9.2 17.79 1.31 30.57-2.19 31.13-.44 57.26 1.75 26.12 10.52 53.36 22.79 60.59 11.59 6.83 25.61 6.12 28.92 3.34 11.25-9.45 10.94-24.73 12.71-41.7 2.32-22.23-2.63-48.92-1.76-66.15.64-12.47-.11-27.12 9.64-28.91 7.76-1.42 14.47 6.18 14.47 16.12 0 12.79-.88 27.26-.44 39.47.44 12.23 1.97 40.66-1.32 55.59-4.8 21.82-7.06 38.89-22.35 50.59-10.95 8.39-30.83 9.93-47.76 0-13.15-7.7-27.65-31.9-32.87-59.48-7.88-41.69-6.13-65.6-4.82-82.83"/>
        <path class="fill-path" fill-rule="evenodd" d="M1435 2227c14.5-3.95 32.03-2.95 49.5 4.5 20.96 8.94 33.29 20.75 41.5 42 7.73 20 8.56 40.33-1 63-7.64 18.11-21.5 30.5-32 39-12.99 10.52-33.5 15.5-40.5 13.5-7.17-2.05-9.11-5.48-13.5-11.5-7.49-10.27-11.49-42.9-11.5-43v-83s-6.72-7.94-5.5-13.5c1.44-6.56 7.5-9.5 13-11m15.5 23c.01.09 1.5 26.02 1.5 38 0 12-1.59 24.46 0 40 1.44 14.06 7 35.5 7 35.5s12.91-3.83 20-8.5 16.96-14.74 22.5-27c5.54-12.25 8.07-20.8 5.5-34-2.26-11.58-2.27-14.59-10-23.5-5.54-6.38-14.37-12.36-22-16-9.07-4.33-24.5-4.5-24.5-4.5M1673.15 2228.28c14.5-3.96 32.03-2.95 49.5 4.5 20.96 8.93 33.29 20.74 41.5 42 7.73 20 8.56 40.33-1 63-7.64 18.11-21.5 30.5-32 39-12.99 10.52-33.5 15.5-40.5 13.5-7.17-2.05-9.11-5.48-13.5-11.5-7.49-10.27-11.49-42.9-11.5-43v-83s-6.72-7.94-5.5-13.5c1.44-6.56 7.5-9.5 13-11m15.5 23c0 .09 1.5 26.02 1.5 38 0 12-1.6 24.46 0 40 1.44 14.05 7 35.5 7 35.5s12.91-3.84 20-8.5c7.09-4.67 16.96-14.75 22.5-27 5.54-12.26 8.07-20.8 5.5-34-2.26-11.58-2.27-14.59-10-23.5-5.54-6.39-14.37-12.36-22-16-9.07-4.33-24.5-4.5-24.5-4.5" clip-rule="evenodd"/>
        <path class="stroke-path" stroke-width="10" d="M1034 1876.5s22.5 20 67.5 12c22.5-4 18-22.5 42-26 41-5.98 84 28 84 28s61.54-43.22 101-36.5c34.5 5.88 26.5 24.5 55.5 24.5 28.21 0 60.5-26.5 60.5-26.5M1037.5 1951c23.5-4.5 46.14-35.27 80.5-35.5 34.89-.24 47.37 31.19 82 35.5 51.42 6.4 72.9-50.82 126.5-39 34 7.5 31.83 27.3 56 30 26.83 3 63-23.5 63-23.5M1037 2009.5c27-9 77.12-57 97.5-31 29 37 84.5 42 84.5 42s72.51-63.27 121-48c18.56 5.85 23.34 22.64 42.5 26 27.29 4.79 66-26 66-26"/>
        <path class="fill-path" fill-rule="evenodd" d="M1077.34 1150.83c15.75-6.22 27.04-7.17 43.99-4.23 15.95 2.77 25.43 6.81 36.88 16.9 17.72 15.62 18.54 31.89 18.77 53.88.2 19.79-.86 33.16-14.24 49.13-13.77 16.44-27.95 24.63-51.11 26.94-22.95 2.28-39.03-2.43-56.29-15.85-17.42-13.54-22.18-27.27-24.59-47.54-2.21-18.6.25-30.53 10.35-47.01 9.54-15.55 17.84-24.96 36.24-32.22m35.38 20.84c-10.71-1.93-17.93-1.14-27.82 2.85-12.11 4.89-16.89 11.57-22.92 21.77-6.64 11.25-7.99 19.23-6.54 31.76 1.55 13.51 3.83 22.95 15.55 32.12 10.86 8.5 20.95 12.16 35.59 10.71 15.02-1.5 23.62-7.65 32.33-18.2 8.97-10.88 9.13-19.89 9-33.19-.15-14.76.05-25.71-11.87-36.4-7.24-6.5-13.05-9.58-23.32-11.42" clip-rule="evenodd"/>
        <path class="fill-path" d="M968.895 1329.56c-4.266-2.15-10.289-2.02-15.74 0-18.8 6.96-18.136 6.46-30.604 15.67-13.554 10-18.469 18.15-25.795 32.63-6.413 12.68-8.957 20.7-10.493 34.81-1.985 18.23-2.694 30.45 6.12 46.56 7.104 12.97 14.454 18.8 27.107 26.54 11.733 7.17 18.531 9.62 32.354 12.62 10.056 2.17 17.919 2.4 27.981-.88 6.543-2.12 11.324-3.84 16.177-8.7l.197-.19c4.001-4.01 6.711-6.72 6.801-12.43.09-5.94-2.03-11.8-7.872-13.05-6.121-1.3-9.182 0-15.303 2.18-7.584 2.69-11.229 6.54-19.237 7.39-10.295 1.1-16.714-1.14-25.795-6.09-8.372-4.56-10.493-7.39-16.177-13.92s-5.543-18.33-5.247-28.72c.323-11.29 1.059-17.73 6.121-27.85 4.205-8.39 7.203-13.06 13.991-19.58 7.675-7.36 12.711-9.72 22.298-14.35 6.615-3.2 14.257-.89 18.362-6.97 3.087-4.56 3.319-8.53 2.187-13.92-1.116-5.31-2.572-9.3-7.433-11.75M1408.05 1118.55c-4.12-2.13-9.94-2-15.2 0-18.17 6.93-17.53 6.42-29.57 15.58-13.1 9.95-17.85 18.04-24.92 32.44-6.2 12.6-8.66 20.58-10.14 34.61-1.92 18.12-2.6 30.27 5.91 46.28 6.87 12.91 13.97 18.7 26.19 26.39 11.34 7.13 17.9 9.57 31.26 12.54 9.71 2.17 17.31 2.39 27.03-.86 6.32-2.12 10.94-3.82 15.63-8.65l.19-.2c3.87-3.98 6.48-6.67 6.57-12.35.08-5.91-1.96-11.74-7.61-12.97-5.91-1.3-8.87 0-14.78 2.16-7.33 2.68-10.85 6.5-18.58 7.35-9.95 1.09-16.15-1.13-24.93-6.05-8.08-4.54-10.13-7.36-15.62-13.85s-5.36-18.21-5.07-28.55c.31-11.22 1.02-17.63 5.91-27.68 4.06-8.35 6.96-12.99 13.52-19.47 7.41-7.32 12.28-9.66 21.54-14.27 6.39-3.18 13.77-.89 17.74-6.92 2.98-4.54 3.21-8.49 2.11-13.85-1.08-5.27-2.48-9.24-7.18-11.68M1344.48 1511.79c-6.25-1.22-8.44-5.28-10.13-9.34-2.6-6.26-2.46-10.94-2.24-17.47.56-17.06 2.07-24.92 2.24-41.43-.87-20.62.88-32.18 0-52.8-.87-20.62 5.63-42.65 5.63-42.65s12.51-3.29 22.49 2.44c24.75 14.22 11.81 6.91 26.43 13.4 16.93 7.53 6.17 3.37 19.12 8.13 0 0-1.12-5.69 1.69-18.28.89-3.99 6.23-11.57 11.81-11.78 5.9-.22 10.51 3.08 11.25 7.31 3.37 19.5 5.06 22.75 5.06 22.75s13.52-4.48 26.43-10.56c9.69-4.57 21.37-14.63 32.61-17.47 3.22-.81 11.25 6.09 12.94 15.03 2.05 10.88-1.13 14.8-1.13 28.03 0 16.24 1.83 25.42 2.25 41.83.35 13.65-.76 21.28-1.12 34.93-.25 9.52 1.78 14.94 0 24.37-1.69 8.94 3.93 18.28-6.75 21.53-4.18 1.27-9.86 2.68-15.75.4-4.46-1.72-4.31-2.48-5.06-6.09-1.68-8.12.36-12.18.56-15.43 1.13-17.47-1.08-22.96-1.68-39.81-.4-10.94-.93-17.08-1.13-28.02-.27-15.24-.56-38.99-.56-38.99s-8.83 3.45-14.06 5.28c-6.57 2.29-11.5 1.8-17.43 4.87-7.14 3.7-12.37 6.65-12.37 13 0 12.99.19 11.55 1.12 19.09 1.03 8.37 1.13 13.12 1.13 21.52 0 13.64 1.77 21.3 1.12 34.93-.56 11.78 0 14.22-4.5 24.37-1.38 3.13-11.08 4.46-17.43 2.44-8.26-2.62-7.31-13.4-7.31-13.4v-15.03c0-5.87-1.13-18.32-1.13-30.06 0-17.13 1.13-39.8 1.13-43.86s-15.18-10.19-20.81-13c-9.61-4.81-26.43-10.15-26.43-10.15v106.41c0 8.94-.56 12.19-2.81 16.65-2.25 4.47-9.39 8.04-15.18 6.91M772.376 1282.8c-6.249-1.17-5.866-6.51-7.553-10.41-2.6-6.02-2.465-10.51-2.249-16.79.562-16.39-.496-23.95-.32-39.81-.879-19.82.878-30.93 0-50.75-.879-19.82 2.197-40.99 2.197-40.99s14.356-5.19 19.857.95c8.993 10.03 7.28 11.46 17.558 17.19 8.214 4.58 5.995 2.87 15.416 6.72 12.419 6.18 15.845 9.76 22.923 13.22 0 0-.269-13.35 2.543-25.45.89-3.83 6.227-11.11 11.809-11.32 5.901-.21 11.8 2.92 12.104 7.03.779 10.52.779 14.69.779 14.69l1.176 31.62c0 12.49-.32 7.92.269 18.35.456 8.08-.589 12.61-.589 20.69 0 13.11.063 20.47-.588 33.57-.562 11.32-.216 29.15-.216 29.15s-9.373 3.56-15.72 1.63c-8.265-2.53-11.593-3.66-11.593-9.3s-11.123 2.09-9.421-21.61c1.084-15.12 4.082-11.17 7.44-26.74 3.495-16.2 3.694-22.49 3.694-26.39s-18.61-19.1-24.233-21.81c-9.612-4.62-29.857-14.06-29.857-14.06s2.569 16.4 2.569 30.57c0 15.55 1.713 39.82 1.713 39.82v26.15c0 8.59-2.275 13.15-4.524 17.44s-9.393 7.72-15.184 6.64M935.6 1719.79c-5.782-1.21-5.427-6.71-6.988-10.73-2.405-6.21-2.281-10.84-2.081-17.31.52-16.9-.459-24.69-.296-41.05-.813-20.43.812-31.89 0-52.32-.813-20.44 2.033-42.26 2.033-42.26s13.283-5.36 18.373.97c8.32 10.34 6.735 11.82 16.244 17.73 7.6 4.72 5.547 2.96 14.264 6.93 11.49 6.37 14.66 10.06 21.208 13.63 0 0-.248-13.76 2.353-26.24.82-3.95 5.76-11.46 10.93-11.67 5.46-.22 10.91 3.01 11.2 7.24.72 10.85.72 15.15.72 15.15l1.09 32.6c0 12.88-.3 8.17.24 18.92.43 8.34-.54 13-.54 21.33 0 13.52.06 21.1-.55 34.61-.52 11.67-.2 30.06-.2 30.06s-8.67 3.68-14.54 1.68c-7.65-2.6-10.726-3.77-10.726-9.59 0-5.81-10.291 2.16-8.717-22.28 1.004-15.58 3.777-11.52 6.884-27.57 3.234-16.7 3.417-23.18 3.417-27.21 0-4.02-17.218-19.7-22.421-22.48-8.892-4.77-27.624-14.5-27.624-14.5s2.377 16.9 2.377 31.52c0 16.03 1.585 41.05 1.585 41.05v26.97c0 8.85-2.105 13.55-4.186 17.98s-8.691 7.96-14.049 6.84M936.5 1178.5c-11.137 10.5-15.5 36-15.5 36s8.5 0 20-1.5c13.215-1.72 11.147-2.63 25.5-5.5 10-2 21-4 25-1 4.779 3.58 5.672 9.66 3 15-2.5 5-7.974 7.82-14.5 10-4.5 1.5-19.15 2.68-31.5 3.5-15 1-26.5 4-26.5 4s10.376 20.14 32 24c14 2.5 26-3.5 26-3.5s8.447-7.87 14.5-6.5c5.387 1.22 8.47 4.69 10 10 2.69 9.3-7.933 13.99-16.5 18.5-9.5 5-28.033 7.18-45 2.5-13.237-3.65-21.1-7.49-30.5-17.5-8.075-8.6-11.094-14.95-13.5-26.5-2.5-12-1.917-27.6 3.5-44 5.661-17.14 10.225-27.84 24-39.5 11.939-10.11 26.5-19.5 36.5-16.5 6.882 2.06 12.3 6.32 12.5 13.5.139 4.98-5.5 11.5-5.5 11.5s-16-3-33.5 13.5M1770.27 1176.5c-9.23 10.34-12.85 35.47-12.85 35.47s7.05 0 16.58-1.48c10.96-1.7 9.24-2.59 21.14-5.42 8.29-1.97 17.41-3.94 20.73-.98 3.96 3.53 4.7 9.51 2.49 14.78-2.08 4.92-6.61 7.71-12.02 9.85-3.74 1.48-15.88 2.64-26.12 3.45-12.44.98-21.97 3.94-21.97 3.94s8.6 19.84 26.53 23.65c11.61 2.46 21.56-3.45 21.56-3.45s7-7.75 12.02-6.4c4.46 1.19 7.02 4.62 8.29 9.85 2.23 9.16-6.58 13.79-13.68 18.23-7.88 4.92-23.24 7.08-37.31 2.46-10.98-3.6-17.5-7.38-25.29-17.24-6.69-8.48-9.2-14.73-11.19-26.11-2.08-11.83-1.59-27.2 2.9-43.36 4.69-16.89 8.48-27.43 19.9-38.92 9.9-9.96 21.97-19.22 30.26-16.26 5.71 2.03 10.2 6.22 10.36 13.3.12 4.9-4.56 11.33-4.56 11.33s-13.26-2.95-27.77 13.31M1595.33 1392.82c-11.82 10.71-16.46 36.7-16.46 36.7s9.03 0 21.24-1.53c14.04-1.76 11.84-2.68 27.08-5.61 10.62-2.03 22.31-4.07 26.55-1.02 5.08 3.66 6.03 9.85 3.19 15.29-2.66 5.1-8.47 7.98-15.4 10.2-4.78 1.53-20.34 2.73-33.45 3.57-15.93 1.01-28.15 4.07-28.15 4.07s11.02 20.53 33.99 24.47c14.87 2.55 27.61-3.57 27.61-3.57s8.97-8.02 15.4-6.63c5.72 1.24 8.99 4.79 10.62 10.2 2.85 9.48-8.43 14.26-17.52 18.86-10.09 5.09-29.78 7.32-47.79 2.54-14.06-3.72-22.41-7.63-32.39-17.84-8.58-8.76-11.79-15.24-14.34-27.01-2.66-12.23-2.04-28.13 3.72-44.85 6.01-17.47 10.85-28.37 25.48-40.26 12.68-10.31 28.15-19.88 38.77-16.82 7.3 2.1 13.06 6.44 13.27 13.76.15 5.07-5.84 11.72-5.84 11.72s-16.99-3.06-35.58 13.76M1380 1630.5c-.02 24.65-3 63-3 63s33.67-5.6 54 0c11.55 3.18 23 5 28 12.5 1.67 2.5 2.34 12.5-1 16.5-2.5 3-5 5.5-12 5-9-2.5-4.09-4.9-7.5-5-11.15-.31-17.35-1.58-28.5-2-12.88-.48-20.25-.85-33 1-9 1.31-11.5 5.5-23.5 5-9.21-.38-8.67-9.5-9-13.5s7-14.5 9-19.5 3.5-18.51 3.5-30.5c0-28.5-1.5-50-2.5-60.5-1.33-13.99-3-30.5-1-36 2.68-7.35 4.9-11.13 11-11 5.95.13 10.21 5.19 11.5 11 5 22.5 4.02 38.96 4 64M1035 1365.5c.9-9.26 6.81-20.91 16-19.5 7.61 1.17 10.08 8.32 10.5 16 1.5 27.5-2.5 28-.5 51.5s12 48 26 54.5c13.22 6.14 29.22 5.5 33 3 12.84-8.5 12.48-22.24 14.5-37.5 2.65-20-3-44-2-59.5.72-11.22-.13-24.39 11-26 8.85-1.28 16.5 5.56 16.5 14.5 0 11.5-1 24.51-.5 35.5.5 11 2.26 36.56-1.5 50-5.48 19.62-8.06 34.98-25.5 45.5-12.5 7.54-35.18 8.93-54.5 0-15-6.93-31.55-28.69-37.5-53.5-9-37.5-7-59-5.5-74.5"/>
        <path class="fill-path" fill-rule="evenodd" d="M1483.5 1158.5c.55-15.24 24.33-21.16 39-17 21.44 6.07 27.5 27.71 27.5 50 0 12.5-4 58-4 58 .05.04 14.11 11.53 11.5 20-2.32 7.52-6.5 10.5-16.5 9-6.49-.97-13.5-8.5-13.5-8.5s-21.5 11.5-43 2c-12.86-5.68-20.28-16.7-23-30.5-3.29-16.69 2.98-29.56 16-40.5 14.34-12.04 47.4-7.02 47.5-7 .01-.07 1.88-9.48 0-15-2.14-6.3-11-13-11-13s-9.2 4.5-15.5 4.5c-4.5 0-15.35-2.47-15-12m39.5 57.5c-.09-.01-17.59-2.46-25.5 3-7.93 5.47-13.42 9.5-11.5 19.5 1.53 7.98 9.92 13.09 18 14 7.43.84 18-6.5 18-6.5 0-.07-.16-8.56 0-14 .18-6.26 1-16 1-16M1092.86 1596.29c.55-15.24 24.33-21.15 39-17 21.44 6.08 27.5 27.72 27.5 50 0 12.5-4 58-4 58 .06.05 14.11 11.53 11.5 20-2.32 7.53-6.5 10.5-16.5 9-6.49-.97-13.5-8.5-13.5-8.5s-21.5 11.5-43 2c-12.86-5.68-20.28-16.7-23-30.5-3.28-16.68 2.98-29.56 16-40.5 14.34-12.04 47.41-7.01 47.5-7 .02-.07 1.88-9.47 0-15-2.14-6.29-11-13-11-13s-9.19 4.5-15.5 4.5c-4.5 0-15.34-2.47-15-12m39.5 57.5c-.09-.01-17.58-2.46-25.5 3-7.93 5.48-13.42 9.5-11.5 19.5 1.54 7.98 9.93 13.09 18 14 7.43.84 18-6.5 18-6.5 0-.07-.16-8.56 0-14 .18-6.25 1-16 1-16" clip-rule="evenodd"/>
        <path class="fill-path" d="M1640 1212c0-15-6-56.5-6-56.5s-21 3.5-28.5 5c-8.22 1.65-16.17-1.94-18.5-10-2.32-8.01 2.43-15.41 11.5-18 7-2 20.5-2.49 35.5-3 10-.34 14.5-.5 24-1 9.38-.49 15-.5 25 .5 12.23 1.22 26.98 5.04 28.5 13 2 10.5 0 15.5-6 16.5-8.36 1.39-13.04-2.4-21.5-3-8.77-.62-22.5 0-22.5 0s4.47 36.28 3 59.5c-1.55 24.58-4 52-11.5 62-4.88 6.5-11.64 11.95-19 8.5-6.93-3.25-11.68-12.86-6.5-18.5 11.5-12.5 12.5-32.97 12.5-55"/>
        <path class="fill-path" fill-rule="evenodd" d="M635.703 2031.95c2.706.69 6.913 3.11 8.857 7.27 1.605 3.43 1.686 7.74 1.126 11.77s-1.766 7.83-2.769 10.29c-4.875 11.93-8.42 17.79-14.41 29.18-3.33 6.32-8.022 14.26-11.878 20.61-1.929 3.17-3.65 5.96-4.888 7.94-.62 1-1.119 1.79-1.463 2.34q-.26.405-.396.63c-.005.01-.011.01-.015.02.01.03.023.06.036.1a25.158 25.158 0 0 1 .939 3.28c.429 2.03.705 4.66-.024 6.89-1.37 4.2-3.683 6.53-7.168 9.48-1.379 1.16-3.308 2.29-4.866 3.11-.783.41-1.483.76-1.987 1-.252.12-.455.21-.595.28-.016 0-.031.01-.045.02l-.167.31c-.167.32-.411.78-.718 1.34-.615 1.14-1.485 2.72-2.51 4.5-2.046 3.55-4.719 7.93-7.195 11.16-2.607 3.39-4.471 5.95-6.675 8.37-2.216 2.44-4.772 4.75-8.78 7.68-4.283 3.14-8.509 1.77-11.198-1.09-2.582-2.74-2.75-7.09-1.048-10.59 2.643-5.44 3.678-7.27 5.106-9.13.702-.92 1.507-1.85 2.628-3.21 1.127-1.37 2.599-3.2 4.666-5.96.519-.69 2.152-3.12 3.886-5.81 1.733-2.68 3.543-5.58 4.417-7.2.83-1.53 1.467-3.27 1.898-4.63.215-.69.377-1.27.485-1.68.05-.19.088-.35.115-.46-.069-.06-.166-.15-.287-.26-.268-.24-.657-.59-1.14-1.03-.968-.89-2.317-2.13-3.837-3.55-3.039-2.85-6.771-6.44-9.53-9.41-3.043-3.27-6.682-7.69-9.557-11.29-1.438-1.81-2.686-3.4-3.575-4.55-.444-.58-.799-1.04-1.042-1.35-.073-.1-.135-.18-.187-.25q-.059.045-.126.09c-.287.22-.706.53-1.228.93l-4.171 3.11a2411 2411 0 0 1-10.716 7.95c-8.303 6.09-12.706 10.41-21.572 15.54-3.144 1.82-5.972 3.69-8.597 4.78-2.671 1.09-5.189 1.41-7.754.13-1.708-.85-2.93-1.92-3.728-3.31-.798-1.4-1.16-3.11-1.18-5.21-.019-1.88.871-3.85 2.16-5.72s3.006-3.68 4.707-5.24a59.5 59.5 0 0 1 6.227-4.98c.186-.13.334-.23.434-.3.051-.03.09-.06.117-.08.013-.01.023-.01.03-.02h.01l.008-.01h.007c.006-.01.016-.01.028-.02.026-.02.065-.04.115-.08.101-.06.249-.16.441-.28.384-.25.943-.61 1.639-1.07 1.393-.9 3.339-2.17 5.551-3.61 4.424-2.9 9.907-6.52 14.152-9.42 4.987-3.41 8.79-6.24 12.613-9.06 3.824-2.81 7.666-5.61 12.718-8.94 9.275-6.12 14.198-9.61 23.683-15.31 12.469-7.49 19.654-12.69 32.732-18.33 2.479-1.06 4.796-2.2 7.012-3.28 2.212-1.07 4.328-2.09 6.383-2.91 4.121-1.65 8.032-2.51 12.096-1.47m-14.639 27.33c.681-1.34-.381-2.45-1.714-1.78-5.33 2.65-15.513 7.78-21.806 11.36-7.614 4.33-18.5 11.12-22.973 13.94-1.004.63-1.336 1.93-.658 2.57 2.327 2.17 7.072 6.63 10.106 9.77 3.413 3.53 7.881 9.33 10.079 12.26.615.81 2.072.44 2.686-.7 2.623-4.88 8.48-15.85 12.116-23.23 3.611-7.33 9.291-18.54 12.164-24.19" clip-rule="evenodd"/>
        <path class="fill-path" d="M563.25 1973.25c3.161-2.99 6.278-3.52 9.022-3.18s8.42 2.4 10.469 6.88c1.392 3.05 1.464 7.35.615 8.75-7.85 12.99-10.054 11.51-16.558 21.37-7.634 11.56-12.114 16.16-21.439 28.34-12.16 15.88-25.508 33.88-31.489 40.39-9.787 10.66-15.104 15.61-20.971 17.86-4.13 1.59-6.843 3.6-10.946 2.5-4.162-1.11-6.396-3.54-7.734-7.64-1.011-3.1-2.039-5.94.209-8.54 7.88-9.14 16.333-15.02 20.95-20.61 9.455-11.43 14.773-17.66 23.898-29.35 8.708-11.16 22.259-28.68 22.259-28.68l17.641-23.1s2.701-3.69 4.074-4.99M270.343 1656.25c3.161-2.99 6.278-3.52 9.022-3.18s8.42 2.4 10.469 6.88c1.392 3.05 1.464 7.35.616 8.75-7.851 12.99-10.055 11.51-16.559 21.37-7.634 11.56-12.113 16.16-21.438 28.34-12.161 15.88-25.509 33.88-31.49 40.39-9.787 10.66-15.104 15.61-20.971 17.86-4.13 1.59-6.843 3.6-10.945 2.5-4.162-1.11-6.396-3.54-7.734-7.64-1.012-3.1-2.04-5.94.209-8.54 7.879-9.14 16.332-15.02 20.949-20.61 9.456-11.43 14.773-17.66 23.899-29.35 8.707-11.16 22.258-28.68 22.258-28.68l17.642-23.1s2.701-3.69 4.073-4.99M185.8 1648.17c-16.312 15.01-43.474 36.4-43.474 36.4s24.212 18.85 32.901 35.7c4.933 9.57 10.709 18.25 8.796 26.13-.637 2.62-6.839 9.16-11.516 9.39-3.506.17-6.682.04-10.616-4.89-3.831-7.47.75-5.69-1.265-8-6.592-7.56-9.526-12.43-16.043-20.06-7.526-8.81-11.772-13.9-20.767-21.21-6.347-5.15-10.642-4.25-17.623-12.48-5.36-6.33.999-11.52 3.44-14.18 2.442-2.66 13.85-4.21 18.374-5.93 4.525-1.73 14.37-8.97 22.295-16.27 18.841-17.37 32.14-31.46 38.471-38.51 8.439-9.41 18.335-20.57 23.188-22.6 6.493-2.71 10.343-3.54 13.974.57 3.543 4.01 2.789 9.91-.265 14.3-11.827 17.02-23.301 26.4-39.87 41.64M363.589 1748.09c7.684-7.31 19.847-14.19 23.537-8.55 3.052 4.67-1.233 11.86-7.005 18.49-20.659 23.73-23.132 22.21-40.411 42.83-17.277 20.63-31.172 45.98-28.947 58.22 2.101 11.55 10.933 18.78 14.85 18.53 13.313-.88 23.836-12.55 36.789-24.33 16.972-15.45 32.741-38.27 45.346-50.75 9.125-9.03 18.951-20.47 26-16.41 5.607 3.23 4.263 12.66-2.71 20.14-8.966 9.62-19.632 20.02-27.937 29.46-8.316 9.44-27.331 31.68-39.763 41.09-18.15 13.75-31.467 25.35-48.756 25.69-12.39.24-25.281-9.62-28.388-26.46-2.411-13.08 5.936-39.32 22.178-62.96 24.548-35.74 42.351-52.75 55.217-64.99"/>
        <path class="fill-path" fill-rule="evenodd" d="M471.227 1839.88c12.586 8.61 19.021 23.33 15.198 36.47-4.027 13.84-12.381 24.24-25.972 32.91-18.845 12.01-42.166 6.55-42.241 6.53-.006.07-1.557 16.74-3.901 28.04-2.688 12.96-3.194 23.55-9.132 32.93-3.056 4.83-7.936 8.18-12.879 8.7-6.615.7-9.295-4.69-6.553-12.99 4.179-12.65 5.334-18.52 7.502-30.93 1.681-9.62 1.303-15.08 2.478-24.31 1.449-11.37-7.771-16.57-7.817-16.59-.033.05-12.043 18.26-21.726 28.46-6.592 6.94-14.501 15.96-17.458 17.29-6.472 2.92-11.891 2.3-14.598-2.12-3.669-5.99 11.055-21.82 11.089-21.85 0 0 18.647-21.08 31.004-34.27 14.206-15.17 28.357-30.36 37.46-39.36 12.379-12.24 11.78-11.26 20.829-15.19s26.216-.9 36.717 6.28m-15.104 21.31c-8.1-8.66-23.512-5.7-23.55-5.69 0 0-7.378 7.64-12.227 12.39-5.708 5.6-14.665 14.2-14.708 14.24 0 0 9.148 7.95 16.857 10.53 9.106 3.05 20.179 3.59 26.436 2.04s12.882-7.59 15.693-14.69c2.711-6.84-3.145-13.1-8.5-18.82z" clip-rule="evenodd"/>
        <path class="fill-path" d="M533.576 1951.16c-5.245-1.64-7.28-12-7.28-12s-20.49-2.4-40.377 10.2c-15.083 9.56-16.434 9.48-34.578 29.84-11.297 12.68-7.826 32.78 6.29 40.76 9.346 5.28 18.142 4.57 27.88-.66 9.951-5.34 16.573-23.83 16.573-23.83s-3.818-1.29-6.469-1.71c-2.921-.45-5.886-.16-7.229-.85-3.654-1.87-4.625-7.51-4.654-8.97-.163-8.1 6.737-13.98 14.777-15.09 11.386-1.57 23.251 10.62 26.746 24.52 2.636 10.49-12.118 36.76-34.288 45.95-14.611 6.06-26.769 9.75-41.32 4.54-16.307-5.83-24.261-16.1-27.119-33.81-2.784-17.25 6.332-41.23 17.221-52.2 26.134-26.34 32.153-27.87 61.743-39.41 14.284-5.58 28.352-3.75 42.007 3.65 9.875 5.36 8.805 15.69 3.773 22.66-3.474 4.82-8.192 8.13-13.696 6.41M272.266 1754.51c13.796-14.88 34.944-38.46 34.944-38.46s-9.555-4.94-14.21-11.55c-3.77-5.35-5.5-10-4-16.5 1.674-7.25 12.439-11.13 17.605-5.77 9.895 10.27 18.271 16.66 18.271 16.66l14.079-18.89L354 1694.5l-15.045 15.4s2.545 8.6 12.119 15.05c6.797 4.58 11.38 9.59 9.027 17.44-2.041 6.81-7.805 11.48-14.846 10.52-5.402-.73-9.255-6.91-11.795-10.85-4.121-6.39-12.262-10.25-12.262-10.25s-19.56 23.84-34.503 40.05C266.882 1793.35 255.5 1809 234 1825c-4.916 3.66-10.565-6.47-9.5-12.5 1.5-8.5 10.7-18.83 10.7-18.83s22.75-23.72 37.066-39.16"/>
        <path class="fill-path" fill-rule="evenodd" d="M245.709 774.73c2.742-1.395 8.055-2.582 12.889-.914 3.991 1.377 7.424 4.458 10.124 7.792 2.701 3.336 4.693 6.953 5.798 9.448 5.371 12.12 7.079 18.888 11.116 31.394 2.243 6.951 4.638 16.033 6.471 23.369a751 751 0 0 1 2.88 11.955l.17.736.006.028.104.045a28.951 28.951 0 0 1 3.334 1.737c1.933 1.176 4.215 2.9 5.369 5.038 2.172 4.025 2.115 7.349 1.587 11.943-.209 1.818-.897 3.992-1.519 5.686a50 50 0 0 1-1.121 2.79l.112.349a185.3 185.3 0 0 1 1.941 6.521c1.119 4.029 2.371 9.097 2.882 13.189.539 4.306 1.022 7.477 1.127 10.793.105 3.332-.17 6.807-1.132 11.761-1.028 5.293-5.535 7.259-9.955 7.065-4.244-.186-7.784-3.242-9.139-6.99-2.104-5.818-2.697-7.882-2.992-10.241-.145-1.16-.219-2.404-.373-4.183-.155-1.79-.393-4.161-.87-7.622-.12-.869-.697-3.791-1.389-6.967-.691-3.174-1.487-6.557-2.038-8.347-.523-1.699-1.366-3.415-2.086-4.715a36 36 0 0 0-.92-1.566q-.165-.262-.263-.413l-.435.013a523.937 523.937 0 0 1-7.632.152c-4.699.056-10.543.056-15.107-.171-5.034-.25-11.453-.923-16.609-1.532a508 508 0 0 1-8.37-1.062l-.344-.048-.028.157-.279 1.534c-.237 1.304-.57 3.127-.952 5.2a1630 1630 0 0 1-2.496 13.315c-1.984 10.271-2.179 16.515-5.372 26.48-1.133 3.534-1.968 6.882-3.257 9.514-1.31 2.676-3.112 4.672-6.197 5.541-2.053.579-3.882.658-5.625.199s-3.371-1.45-5.032-2.968c-1.486-1.359-2.307-3.422-2.721-5.69s-.431-4.79-.274-7.125c.158-2.34.49-4.516.783-6.105.147-.795.284-1.445.384-1.897q.076-.34.12-.523l.034-.138.009-.036.002-.009.001-.003.002-.009.002-.008.009-.034.035-.134.136-.517.5-1.926c.425-1.638 1.016-3.927 1.681-6.535 1.331-5.218 2.956-11.707 4.138-16.801 1.389-5.985 2.264-10.719 3.169-15.456.905-4.738 1.838-9.476 3.339-15.452 2.755-10.97 4.022-16.975 7.277-27.786 4.278-14.212 6.048-23.05 12.271-36.339 1.18-2.519 2.174-4.974 3.133-7.315.957-2.336 1.881-4.564 2.909-6.605 2.063-4.093 4.566-7.467 8.683-9.562m9.486 30.209c-.494-1.454-2.226-1.519-2.791-.099-2.259 5.674-6.523 16.563-8.838 23.59-2.802 8.503-6.334 21.1-7.769 26.291-.322 1.165.427 2.349 1.474 2.335 3.589-.051 10.941-.125 15.862.034 5.535.178 13.71 1.276 17.784 1.865 1.14.165 2.032-1.131 1.638-2.393-1.685-5.401-5.506-17.51-8.325-25.445-2.799-7.881-6.948-20.039-9.035-26.178M230.709 968.73c2.742-1.395 8.055-2.582 12.889-.914 3.991 1.377 7.424 4.458 10.124 7.792 2.701 3.336 4.693 6.953 5.798 9.448 5.371 12.12 7.079 18.884 11.116 31.394 2.243 6.95 4.638 16.03 6.471 23.37.917 3.67 1.694 6.91 2.242 9.22.273 1.16.49 2.09.638 2.73l.17.74.006.03c.031.01.066.03.104.04.189.08.459.21.79.36.662.32 1.568.79 2.544 1.38 1.933 1.18 4.215 2.9 5.369 5.04 2.172 4.02 2.115 7.35 1.587 11.94-.209 1.82-.897 3.99-1.519 5.69-.312.85-.612 1.59-.834 2.12-.111.26-.202.48-.266.62-.007.02-.014.03-.021.05a103.869 103.869 0 0 1 .576 1.83c.389 1.26.917 3.02 1.477 5.04 1.119 4.03 2.371 9.09 2.882 13.19.539 4.3 1.022 7.47 1.127 10.79.105 3.33-.17 6.81-1.132 11.76-1.028 5.29-5.535 7.26-9.955 7.07-4.244-.19-7.784-3.25-9.139-6.99-2.104-5.82-2.697-7.89-2.992-10.25-.145-1.16-.219-2.4-.373-4.18a146 146 0 0 0-.87-7.62c-.12-.87-.697-3.79-1.389-6.97-.691-3.17-1.487-6.56-2.038-8.35-.523-1.69-1.366-3.41-2.086-4.71a37 37 0 0 0-.92-1.57l-.263-.41c-.106 0-.252.01-.435.01-.408.02-1 .03-1.739.05-1.478.03-3.543.08-5.893.11-4.699.05-10.543.05-15.107-.17-5.034-.26-11.453-.93-16.609-1.54-2.579-.3-4.844-.59-6.464-.8l-1.906-.26c-.133-.02-.248-.03-.344-.05l-.028.16-.279 1.53c-.237 1.31-.57 3.13-.952 5.2-.763 4.15-1.719 9.3-2.496 13.32-1.984 10.27-2.179 16.51-5.372 26.48-1.133 3.53-1.968 6.88-3.257 9.51-1.31 2.68-3.112 4.67-6.197 5.54-2.053.58-3.882.66-5.625.2s-3.371-1.45-5.032-2.97c-1.486-1.35-2.307-3.42-2.721-5.68-.415-2.27-.431-4.79-.274-7.13a55 55 0 0 1 1.321-8.66c.003-.02.007-.03.009-.04l.002-.01h.001l.002-.01.002-.01.009-.03.035-.14c.031-.11.077-.29.136-.51l.5-1.93c.425-1.64 1.016-3.93 1.681-6.53 1.331-5.22 2.956-11.71 4.138-16.8 1.389-5.99 2.264-10.72 3.169-15.46s1.838-9.48 3.339-15.45c2.755-10.97 4.022-16.98 7.277-27.79 4.278-14.21 6.048-23.05 12.271-36.338 1.18-2.519 2.174-4.974 3.133-7.315.957-2.336 1.881-4.564 2.909-6.605 2.063-4.093 4.566-7.467 8.683-9.562m9.486 30.209c-.494-1.454-2.226-1.519-2.791-.099-2.259 5.67-6.523 16.56-8.838 23.59-2.802 8.5-6.334 21.1-7.769 26.29-.322 1.17.427 2.35 1.474 2.34 3.589-.06 10.941-.13 15.862.03 5.535.18 13.71 1.28 17.784 1.87 1.14.16 2.032-1.14 1.638-2.4-1.685-5.4-5.506-17.51-8.325-25.44-2.799-7.88-6.948-20.04-9.035-26.181M267.618 1171.62c1.836-1.31 5.394-2.42 8.631-.86 2.672 1.29 4.971 4.18 6.779 7.29 1.809 3.13 3.142 6.51 3.883 8.84 3.596 11.35 4.74 17.68 7.443 29.38 1.503 6.5 3.107 15 4.334 21.87a921 921 0 0 1 2.042 11.87l.004.03c.021.01.044.02.07.04.126.07.307.19.529.34.443.29 1.05.73 1.703 1.28 1.295 1.1 2.823 2.72 3.596 4.72 1.454 3.76 1.416 6.87 1.062 11.17-.14 1.7-.6 3.74-1.017 5.32-.209.8-.41 1.49-.558 1.99-.074.25-.135.44-.178.58-.005.02-.01.03-.014.04l.075.33a231.627 231.627 0 0 1 1.3 6.1c.748 3.77 1.587 8.51 1.93 12.34.36 4.03.683 7 .754 10.1.07 3.12-.114 6.37-.758 11-.688 4.96-3.707 6.8-6.666 6.61-2.842-.17-5.213-3.03-6.12-6.54-1.409-5.44-1.806-7.37-2.004-9.58-.097-1.08-.147-2.25-.25-3.91-.103-1.68-.263-3.89-.582-7.13-.081-.82-.467-3.55-.93-6.52s-.996-6.14-1.365-7.81c-.351-1.59-.915-3.2-1.397-4.41-.24-.61-.459-1.12-.616-1.47q-.11-.24-.176-.39c-.071.01-.169.01-.292.02-.273.01-.669.02-1.164.04-.99.03-2.373.07-3.946.1-3.147.05-7.06.05-10.117-.16-3.37-.24-7.669-.86-11.122-1.44a206 206 0 0 1-5.604-.99c-.089-.02-.167-.03-.231-.04l-.018.14-.187 1.44c-.159 1.22-.382 2.92-.638 4.86-.511 3.88-1.151 8.7-1.671 12.46-1.329 9.61-1.459 15.46-3.598 24.78-.758 3.31-1.318 6.44-2.18 8.9-.878 2.51-2.085 4.37-4.15 5.19-1.375.54-2.6.61-3.767.18s-2.257-1.35-3.37-2.78c-.995-1.27-1.545-3.2-1.822-5.32s-.289-4.48-.183-6.67a71 71 0 0 1 .781-7.48c.034-.21.061-.38.08-.49l.023-.13.006-.03.001-.01.001-.01h.002l.001-.01.006-.03.024-.13.09-.48.335-1.81c.285-1.53.681-3.67 1.126-6.11.891-4.88 1.979-10.95 2.771-15.72.93-5.6 1.516-10.03 2.122-14.46.606-4.44 1.231-8.87 2.236-14.46 1.845-10.26 2.693-15.88 4.873-26 2.865-13.3 4.05-21.57 8.217-34 .79-2.36 1.456-4.65 2.098-6.84s1.26-4.27 1.948-6.18c1.382-3.83 3.058-6.99 5.815-8.95m6.352 28.26c-.331-1.36-1.491-1.42-1.869-.09-1.513 5.31-4.368 15.5-5.919 22.07-1.876 7.96-4.241 19.75-5.202 24.6-.216 1.09.286 2.2.987 2.19 2.403-.05 7.327-.12 10.622.03 3.706.17 9.181 1.19 11.909 1.75.763.15 1.361-1.06 1.097-2.24-1.129-5.06-3.687-16.39-5.575-23.81-1.875-7.38-4.653-18.75-6.05-24.5" clip-rule="evenodd"/>
        <path class="fill-path" d="M118.901 1030.9c-.016 25.93-2.019 66.27-2.019 66.27s19.448 3 34.345 3c8.773 0 15.48 2.26 18.846 10.15 1.121 2.63 1.572 13.15-.673 17.35-1.683 3.16-3.366 5.79-8.077 5.26-6.058-2.63-2.753-5.16-5.048-5.26-7.507-.32-11.678-1.66-19.182-2.1-8.668-.51-13.627-.9-22.211 1.05-6.058 1.38-5.74 5.79-13.817 5.26-6.2-.4-5.833-9.99-6.058-14.2s2.712-15.25 4.058-20.51.356-19.47.356-32.09c0-29.98-1.01-52.59-1.683-63.64-.897-14.719-.02-32.081 1.327-37.866 1.801-7.737 3.299-11.705 7.404-11.571 4.004.132 9.871 5.46 10.74 11.571 3.365 23.669 1.709 40.976 1.692 67.326"/>
        <path class="fill-path" fill-rule="evenodd" d="M131.5 769c12.604-4.249 22.517-4.711 34 2 8.742 5.109 11.923 10.968 16.5 20 3.547 7 7.218 25 5.5 37-2.289 15.992-5.301 25.287-17.393 36-4.6 4.076-46.879 12.975-47 13-.01.09-2.607 21.737-2.607 35 0 4.5-2.444 25.935-13.5 25-5.497-.465-11.976-7.474-12-7.5 0 0 1.93-19.783 2.5-32.5.795-17.751.54-27.739 0-45.5-.57-18.773-3-32-3-48 0-4 2-18.5 8-21.5 2.843-1.421 9 .5 9 .5s11.071-10.489 20-13.5m27 31.5c-4.91-5.343-9.786-8.28-17-7.5-5.827.631-9.985 2.474-13 7.5-1.201 2.001-9 9-9 9 .005.08.817 13.428 1 22 .162 7.614 0 19.5 0 19.5s10.319-2.627 17-4c6.603-1.357 11.36.693 17-3 7.979-5.225 9.007-12.975 9.5-22.5.31-6-.59-15.657-5.5-21M195.967 1161.61c11.372-2.77 22.373 3.54 26.843 16.19 4.709 13.33 5.269 27.25 2.023 43.71-4.501 22.82-20.297 35.83-20.347 35.87.03.05 7.546 13.68 11.919 23.87 5.014 11.69 10.058 19.99 11.455 31.38.718 5.86-.324 11.95-2.828 15.97-3.349 5.37-7.559 3.29-10.202-4.94-4.027-12.55-6.333-17.8-11.359-28.68-3.898-8.44-6.859-12.26-10.843-20.04-4.91-9.59-12.681-6.72-12.72-6.71.007.06 2.447 22.52 2.159 37.26-.196 10.04-.085 22.59-1.07 25.76-2.154 6.93-5.496 10.44-9.233 9.11-5.064-1.79-4.788-24.45-4.787-24.5 0 0-.171-29.48.108-48.42.32-21.78.595-43.55 1.163-56.96.772-18.25.93-17.08 4.014-26.66s14.216-19.89 23.705-22.21m2.266 27.05c-8.887-.55-16.024 12.96-16.042 12.99 0 0-.283 11.14-.604 18.26-.378 8.38-1.063 21.39-1.066 21.46 0 0 9.114-.76 14.725-4.47 6.628-4.39 13.096-12.1 15.816-17.85 2.72-5.76 3.39-15.14 1.394-22.52-1.923-7.11-8.347-7.51-14.222-7.87zM113.934 1158.83c9.339-6.52 27.39 5.02 30.533 24.07 4.55 27.57-4.041 45.62-4.041 45.62.024.03 13.921 16.07 15.267 39.11 1.336 22.87-1.347 45.62-14.818 57.66-10.664 9.52-24.91 13.03-36.371 6.01-13.537-8.29-12.13-41.97-12.123-42.11 0 0 .091-29.64.449-48.63.482-25.65-4.94-61.17.898-67.69 2.916-3.26 7.599-5 7.633-5.01 0 0 8.98-6.52 12.573-9.03m7.633 26.58c-5.807-.66-10.273 3.03-12.572 9.02-4.041 10.53-3.747 28.12-2.695 50.64l2.695 57.65s11.225 7.52 22.002 0c8.031-5.6 11.225-25.56 9.429-35.09-4.285-22.73-17.961-18.55-21.553-21.56-4.833-4.05-5.388-9.53-4.041-17.55.687-4.09 13.906-12.85 16.165-23.56 1.796-8.52-1.702-18.68-9.43-19.55" clip-rule="evenodd"/>
        <path class="stroke-path"  stroke-width="14" d="M1241 748.5s-140.05 2.572-176.5-63.5c-16-29-28.5-104-43-126-14.56-22.093-41-29.5-59.5-33.5-17.707-3.829-45 1-45 1l8.5-18.5s19.323-8.539 29.5-25.5c13.5-22.5 30.609-37.986 57-36.5 26.34 1.482 40.81 18.385 51.5 42.5 23.5 53 56.5 53 56.5 53m121 207s1.15 24.759-7 37m7-37s22.81-1.342 53-8.84m246.5-135.16s-97.03 38.397-139.5 80.5c-30.57 30.305-73.36 46.305-107 54.66m246.5-135.16s6.45-21.922 4.5-36.5c-1.79-13.344-13.5-34.5-13.5-34.5m9 71s43.28-4.551 71.5-2.5c28.22 2.05 73 13 73 13s-52.8-37.408-67.5-73.5c-11.99-29.439-8-81-8-81s-21.77 34.746-37 49-41 24-41 24m0 0-112.5 29m0 0s-10.1 40.593-24.5 62.5c-17.39 26.452-32.03 39.673-60 54.5-27.27 14.457-84 10.501-84 10.501s-50.71 1.001-69.5-10.501c-24.5-15-31.74-32-43-54.5-14.27-28.5-18-83.5-18-83.5m299 21s-19.6 3.445-46.5 6.939M1120 541.5s28.45 10.527 64 20.051m0 0s6.8 36.018 15 59.449c7 20 17.31 24.833 34 32.5 24.36 11.19 54.5 2.04 68.5-4.5 20.53-9.59 27.7-22.342 42.5-39.5 12.54-14.539 28.5-40.061 28.5-40.061m-188.5-7.888a666 666 0 0 0 19.5 4.916m169 2.972c-31.07 4.035-71.88 8.133-103.5 7.061-20.05-.68-43.35-4.822-65.5-10.033m169 2.972s-38.64 24.29-67 37.061c-18.12 8.16-46 18.422-57 16.5-16.23-2.836-18.5-7.5-28-23-7.67-12.518-17-33.533-17-33.533M1234 785.5c-10.21 15.338-42 21.5-42 21.5m42-21.5s-6.07 7.935-9 13.5-6 15-6 15m75-74.34s3.5 18.34-14.5 36.84c-7.76 7.978-15.5 15-17.5 22.5m0 0c-2.06 7.73 4 30.5 4 30.5m-4-30.5s-5.97.621-9.5 2c-4.09 1.596-9.5 6-9.5 6"/>
        <ellipse class="fill-path" cx="992.5" cy="490" fill="#000" rx="11.5" ry="14"/>
        <path class="stroke-path" stroke-width="14" d="M437.5 1320v80M485 1310v77M453 1434v77M527 1511v45M546 1524v66M605 1513v65M495 1585v59M566 1648v66M635 1672v44M767 1705v66M706 1759v66M756 1849v55M822 1913v63M881 1918v56M941 1975v47M918 2039v38M624 1722v36M2067 1354v49M2027 1299v48M2065 1487v46M2003 1494v87M1976 1575v66M1915 1516v65M1908 1676v65M1821 1833v44M1746 1722v61M1818 1694v99M1779 1887v55M1692 1901v63M1746 1924v52M1660 1899v43M1600 1928v90M1663 2004v61M1882 1745v45"/></g><defs><clipPath id="a"><path fill="#fff" d="M0 0h2504v2504H0z"/></clipPath></defs>
    <style>
        .stroke-path { 
            stroke: #000;
            fill: none;
        }
        .fill-path {
            fill: #000;
            stroke: none;
        }
        @media (prefers-color-scheme: dark) {
            .stroke-path { 
                stroke: #FFF;
                fill: none;
            }
            .fill-path {
                fill: #FFF;
                stroke: none;
            }
        }
    </style>
</svg>